<?xml version="1.0" encoding="UTF-8" standalone="no"?>
<!-- This is a slightly modified version of a sample that shipped with
     JASC's WebDraw (www.jasc.com) -->
<svg xmlns:dc="http://purl.org/dc/elements/1.1/" xmlns:cc="http://creativecommons.org/ns#" xmlns:rdf="http://www.w3.org/1999/02/22-rdf-syntax-ns#" xmlns:svg="http://www.w3.org/2000/svg" xmlns="http://www.w3.org/2000/svg" xmlns:sodipodi="http://sodipodi.sourceforge.net/DTD/sodipodi-0.dtd" xmlns:inkscape="http://www.inkscape.org/namespaces/inkscape" id="svg2" sodipodi:version="0.32" inkscape:version="0.46" width="398.36356" height="248.99864" sodipodi:docname="butterfly.svg" inkscape:output_extension="org.inkscape.output.svg.inkscape" version="1.0">
  <metadata id="metadata13">
    <rdf:RDF>
      <cc:Work rdf:about="">
        <dc:format>image/svg+xml</dc:format>
        <dc:type rdf:resource="http://purl.org/dc/dcmitype/StillImage"/>
      </cc:Work>
    </rdf:RDF>
  </metadata>
  <defs id="defs11">
    <inkscape:perspective sodipodi:type="inkscape:persp3d" inkscape:vp_x="0 : 526.18109 : 1" inkscape:vp_y="0 : 1000 : 0" inkscape:vp_z="744.09448 : 526.18109 : 1" inkscape:persp3d-origin="372.04724 : 350.78739 : 1" id="perspective15"/>
  </defs>
  <sodipodi:namedview inkscape:window-height="480" inkscape:window-width="640" inkscape:pageshadow="2" inkscape:pageopacity="0.0" guidetolerance="10.0" gridtolerance="10.0" objecttolerance="10.0" borderopacity="1.0" bordercolor="#666666" pagecolor="#ffffff" id="base" showgrid="false"/>
  <path style="fill:#f67f00;stroke:none;stroke-width:1" d="M 196.2937,106.48863 C 188.2937,99.98863 198.6437,99.47863 198.5437,99.23863 C 184.2937,63.73863 161.3137,48.06863 159.5437,47.23863 C 154.0837,44.67863 151.4437,44.91863 152.4137,43.62863 C 153.3737,42.33863 159.6837,46.37863 160.5437,46.98863 C 185.7937,64.98863 199.5437,98.98863 199.5437,98.98863 C 199.5437,98.98863 201.2937,99.98863 201.5437,99.23863 C 211.5437,69.73863 231.5437,54.23863 238.2937,47.98863 C 245.0437,41.73863 248.5937,41.12863 239.2937,48.23863 C 210.5437,70.23863 202.3037,98.88863 202.7937,98.98863 C 214.2937,101.48863 203.2937,106.98863 203.7937,106.48863 C 206.8137,103.46863 206.7937,112.48863 206.7937,112.48863 C 206.7937,112.48863 223.7937,77.48863 290.2937,32.98863 C 294.3937,30.24863 437.7937,-48.01137 387.7937,47.48863 C 385.2037,52.44863 367.7937,72.48863 367.7937,72.48863 C 367.7937,72.48863 369.2937,80.98863 363.2937,87.98863 C 362.2637,89.18863 359.7937,100.98863 353.7937,107.48863 C 352.1037,109.32863 353.7737,105.90863 353.7937,107.48863 C 354.2937,137.48863 329.7237,136.82863 331.2937,136.98863 C 340.7937,137.98863 342.1537,150.31863 342.2937,150.48863 C 347.7937,156.98863 345.7937,158.48863 347.7937,161.48863 C 358.5937,177.67863 347.2037,176.70863 348.7937,179.48863 C 352.7937,186.48863 347.9537,189.37863 349.2937,191.48863 C 352.7937,196.98863 346.7137,200.49863 346.7937,201.98863 C 347.2937,210.48863 341.6337,207.38863 341.7937,210.98863 C 342.2937,221.98863 338.2937,217.48863 335.7937,221.48863 C 328.2937,233.48863 325.4237,229.03863 324.7937,230.48863 C 321.7937,237.48863 317.7737,235.80863 316.2937,237.48863 C 312.7937,241.48863 309.2937,241.48863 307.7937,242.98863 C 300.7937,249.98863 296.8237,245.04863 295.7937,245.48863 C 279.7937,252.48863 272.2937,246.82863 269.7937,246.98863 C 262.2937,247.48863 263.4437,246.32863 261.2937,244.48863 C 229.7937,217.48863 211.2937,178.48863 207.7937,173.48863 C 206.3637,171.44863 203.3137,159.77863 204.2937,162.48863 C 206.2937,167.98863 205.2937,216.98863 199.7937,216.98863 C 194.2937,216.98863 193.7937,170.98863 197.2937,162.48863 C 198.3937,159.81863 196.3637,170.37863 193.7537,173.48863 C 188.2937,179.98863 171.4637,217.48863 139.5537,244.48863 C 137.3837,246.32863 138.5437,247.48863 130.9437,246.98863 C 128.4237,246.82863 120.8137,252.48863 104.6137,245.48863 C 103.5737,245.04863 99.543702,249.98863 92.453702,242.98863 C 90.933702,241.48863 87.393702,241.48863 83.843702,237.48863 C 82.353702,235.80863 78.273702,237.48863 75.233702,230.48863 C 74.603702,229.03863 71.693702,233.48863 64.093702,221.48863 C 61.563702,217.48863 57.503702,221.98863 58.013702,210.98863 C 58.183702,207.38863 52.443702,210.48863 52.953702,201.98863 C 53.043702,200.49863 46.873702,196.98863 50.413702,191.48863 C 51.773702,189.37863 46.873702,186.48863 50.923702,179.48863 C 52.533702,176.70863 41.003702,177.67863 51.933702,161.48863 C 53.963702,158.48863 51.933702,156.98863 57.503702,150.48863 C 57.653702,150.31863 59.023702,137.98863 68.653702,136.98863 C 70.243702,136.82863 45.353702,137.48863 45.863702,107.48863 C 45.883702,105.90863 47.573702,109.32863 45.863702,107.48863 C 39.783702,100.98863 37.283702,89.18863 36.233702,87.98863 C 30.153702,80.98863 31.673702,72.48863 31.673702,72.48863 C 31.673702,72.48863 14.043702,52.44863 11.423702,47.48863 C -39.226298,-48.01137 106.0337,30.24863 110.1837,32.98863 C 177.5437,77.48863 193.9637,112.48863 193.9637,112.48863 C 193.9637,112.48863 194.3237,109.93863 194.9637,108.48863 C 195.6037,107.04863 196.5237,106.67863 196.2937,106.48863 z" id="path4"/>
  <path style="fill:#000000;stroke:none;stroke-width:1" d="M 195.5837,106.27863 C 187.5837,99.77863 197.9237,99.25863 197.8337,99.02863 C 183.5837,63.52863 160.6037,47.85863 158.8337,47.02863 C 153.3737,44.46863 150.7337,44.70863 151.6937,43.41863 C 152.6537,42.12863 158.9737,46.16863 159.8337,46.77863 C 185.0837,64.77863 198.8337,98.77863 198.8337,98.77863 C 198.8337,98.77863 200.5837,99.77863 200.8337,99.02863 C 210.8337,69.52863 230.8337,54.02863 237.5837,47.77863 C 244.3337,41.52863 247.8837,40.91863 238.5837,48.02863 C 209.8337,70.02863 201.5937,98.66863 202.0837,98.77863 C 213.5837,101.27863 202.5837,106.77863 203.0837,106.27863 C 206.1037,103.25863 206.0837,112.27863 206.0837,112.27863 C 206.0837,112.27863 223.0837,77.27863 289.5837,32.77863 C 293.6737,30.03863 437.0837,-48.22137 387.0837,47.27863 C 384.4937,52.22863 367.0837,72.27863 367.0837,72.27863 C 367.0837,72.27863 368.5837,80.77863 362.5837,87.77863 C 361.5537,88.97863 359.0837,100.77863 353.0837,107.27863 C 351.3937,109.11863 353.0537,105.69863 353.0837,107.27863 C 353.5837,137.27863 329.0137,136.61863 330.5837,136.77863 C 340.0837,137.77863 341.4337,150.10863 341.5837,150.27863 C 347.0837,156.77863 345.0837,158.27863 347.0837,161.27863 C 357.8737,177.46863 346.4937,176.49863 348.0837,179.27863 C 352.0837,186.27863 347.2437,189.16863 348.5837,191.27863 C 352.0837,196.77863 345.9937,200.27863 346.0837,201.77863 C 346.5837,210.27863 340.9237,207.17863 341.0837,210.77863 C 341.5837,221.77863 337.5837,217.27863 335.0837,221.27863 C 327.5837,233.27863 324.7037,228.82863 324.0837,230.27863 C 321.0837,237.27863 317.0537,235.59863 315.5837,237.27863 C 312.0837,241.27863 308.5837,241.27863 307.0837,242.77863 C 300.0837,249.77863 296.1137,244.82863 295.0837,245.27863 C 279.0837,252.27863 271.5837,246.60863 269.0837,246.77863 C 261.5837,247.27863 262.7337,246.11863 260.5837,244.27863 C 229.0837,217.27863 210.5837,178.27863 207.0837,173.27863 C 205.6537,171.22863 202.5937,159.56863 203.5837,162.27863 C 205.5837,167.77863 204.5837,216.77863 199.0837,216.77863 C 193.5837,216.77863 193.0837,170.77863 196.5837,162.27863 C 197.6837,159.60863 195.6537,170.15863 193.0437,173.27863 C 187.5837,179.77863 170.7537,217.27863 138.8437,244.27863 C 136.6737,246.11863 137.8337,247.27863 130.2337,246.77863 C 127.7137,246.60863 120.1037,252.27863 103.9037,245.27863 C 102.8637,244.82863 98.833702,249.77863 91.743702,242.77863 C 90.223702,241.27863 86.683702,241.27863 83.133702,237.27863 C 81.643702,235.59863 77.563702,237.27863 74.523702,230.27863 C 73.893702,228.82863 70.973702,233.27863 63.383702,221.27863 C 60.843702,217.27863 56.793702,221.77863 57.303702,210.77863 C 57.473702,207.17863 51.733702,210.27863 52.233702,201.77863 C 52.323702,200.27863 46.163702,196.77863 49.703702,191.27863 C 51.063702,189.16863 46.163702,186.27863 50.213702,179.27863 C 51.823702,176.49863 40.293702,177.46863 51.223702,161.27863 C 53.253702,158.27863 51.223702,156.77863 56.793702,150.27863 C 56.943702,150.10863 58.313702,137.77863 67.943702,136.77863 C 69.533702,136.61863 44.643702,137.27863 45.143702,107.27863 C 45.173702,105.69863 46.863702,109.11863 45.143702,107.27863 C 39.073702,100.77863 36.563702,88.97863 35.523702,87.77863 C 29.443702,80.77863 30.963702,72.27863 30.963702,72.27863 C 30.963702,72.27863 13.333702,52.22863 10.703702,47.27863 C -39.936298,-48.22137 105.3237,30.03863 109.4737,32.77863 C 176.8337,77.27863 193.2537,112.27863 193.2537,112.27863 C 193.2537,112.27863 193.6137,109.72863 194.2537,108.27863 C 194.8937,106.83863 195.8137,106.46863 195.5837,106.27863 z M 234.0837,119.77863 C 237.1237,119.67863 243.3137,122.82863 247.0837,121.77863 C 272.5137,114.71863 320.4037,121.21863 323.5837,122.27863 C 335.5837,126.27863 343.5837,97.77863 318.0837,97.77863 C 286.5537,97.77863 293.0837,95.77863 272.0837,92.77863 C 270.3037,92.52863 244.5637,102.07863 220.5837,115.77863 C 217.0837,117.77863 219.0837,120.27863 234.0837,119.77863 z M 215.0837,114.77863 C 217.6237,115.05863 230.0837,106.27863 269.0837,90.77863 C 271.4537,89.83863 271.5837,84.77863 292.5837,75.27863 C 293.9537,74.65863 292.0837,71.27863 306.5837,59.27863 C 313.7537,53.34863 289.0837,54.27863 283.5837,55.27863 C 278.0837,56.27863 264.5837,67.27863 264.5837,67.27863 C 264.5837,67.27863 279.7637,55.20863 274.5837,56.77863 C 263.0837,60.27863 233.0837,93.27863 223.0837,107.27863 C 213.0837,121.27863 239.5837,83.27863 246.0837,77.27863 C 252.5837,71.27863 196.5837,112.77863 215.0837,114.77863 z M 327.5837,95.27863 C 342.1037,98.18863 340.5837,76.77863 333.0837,75.77863 C 321.5137,74.23863 299.4737,74.95863 293.0837,77.27863 C 276.5837,83.27863 272.2537,89.30863 273.5837,89.77863 C 302.0837,99.77863 322.5837,94.27863 327.5837,95.27863 z M 327.0837,73.27863 C 333.0037,74.01863 343.0837,76.27863 343.5837,68.27863 C 343.8337,64.25863 357.5837,71.27863 360.5837,71.77863 C 363.0637,72.18863 350.0837,66.98863 345.5837,63.77863 C 342.0837,61.27863 341.4737,58.41863 341.0837,58.27863 C 309.0837,46.77863 295.5837,73.77863 295.5837,73.77863 C 295.5837,73.77863 323.0837,72.77863 327.0837,73.27863 z M 392.5837,29.27863 C 387.5837,21.27863 378.6237,23.73863 375.5837,20.27863 C 361.0837,3.7786304 327.5037,24.93863 355.0837,22.77863 C 387.0837,20.27863 393.1737,30.22863 392.5837,29.27863 z M 368.5837,33.27863 C 382.0937,33.27863 388.0837,39.27863 387.0837,38.27863 C 380.0837,31.27863 374.0837,32.77863 372.5837,30.77863 C 363.6637,18.88863 337.0837,31.27863 339.0837,34.27863 C 341.0837,37.27863 365.0837,33.27863 368.5837,33.27863 z M 322.0837,42.77863 C 301.0837,47.77863 310.0837,55.27863 312.5837,54.77863 C 332.0137,50.89863 326.4637,41.73863 322.0837,42.77863 z M 332.5837,18.77863 C 323.0837,19.77863 322.4437,37.08863 327.0837,33.77863 C 334.0837,28.77863 342.0837,17.77863 332.5837,18.77863 z M 307.5837,42.27863 C 321.5837,36.77863 311.0837,34.27863 306.5837,34.77863 C 302.0837,35.27863 298.7537,42.10863 300.0837,44.77863 C 303.0837,50.77863 304.8737,43.34863 307.5837,42.27863 z M 351.5837,87.77863 C 356.0837,85.27863 350.5837,79.27863 346.5837,81.77863 C 342.5837,84.27863 347.0837,90.27863 351.5837,87.77863 z M 342.0837,45.27863 C 353.8537,57.04863 358.5837,50.77863 361.0837,49.77863 C 369.2037,46.52863 378.0837,55.27863 376.5837,53.77863 C 369.3037,46.49863 364.5837,47.77863 363.5837,46.27863 C 355.9737,34.85863 344.6237,42.09863 342.0837,42.27863 C 335.0837,42.77863 326.3937,47.68863 329.5837,46.77863 C 333.0837,45.77863 340.5837,43.77863 342.0837,45.27863 z M 375.5837,10.77863 C 382.5837,5.7786304 373.3637,4.5086304 371.5837,4.7786304 C 365.0837,5.7786304 368.5837,15.77863 375.5837,10.77863 z M 216.5837,147.77863 C 222.0837,154.27863 283.5837,251.77863 274.0837,219.27863 C 272.7937,214.85863 277.5837,232.77863 283.0837,222.77863 C 284.6237,219.97863 293.2337,219.68863 266.5837,175.27863 C 265.0837,172.77863 244.5837,164.77863 224.0837,142.27863 C 220.9837,138.86863 212.0137,142.37863 216.5837,147.77863 z M 272.0837,182.27863 C 276.5837,189.27863 287.7737,212.72863 288.5837,216.27863 C 291.0837,227.27863 298.0837,214.77863 299.5837,215.27863 C 312.7437,219.66863 303.0837,207.77863 302.0837,204.77863 C 292.9137,177.27863 271.5837,179.77863 271.5837,179.77863 C 271.5837,179.77863 267.5837,175.27863 272.0837,182.27863 z M 245.5837,222.77863 C 258.2237,240.74863 263.0837,233.77863 265.5837,231.77863 C 273.2837,225.61863 224.3037,162.79863 221.0837,158.77863 C 217.0837,153.77863 217.0837,182.27863 245.5837,222.77863 z M 292.0837,185.77863 C 298.5837,190.77863 305.8237,211.84863 309.5837,211.27863 C 319.5837,209.77863 313.5837,201.27863 316.0837,202.77863 C 318.5837,204.27863 323.5837,201.60863 322.0837,198.77863 C 309.5837,175.27863 290.0837,182.77863 290.0837,182.77863 C 290.0837,182.77863 285.5837,180.77863 292.0837,185.77863 z M 227.5837,135.27863 C 208.0837,135.27863 274.0837,189.27863 293.0837,178.77863 C 297.0237,176.59863 288.0837,175.27863 289.5837,163.77863 C 289.8637,161.67863 276.0837,157.77863 276.0837,144.77863 C 276.0837,140.53863 268.1637,138.77863 243.0837,138.77863 C 238.5837,138.77863 247.9937,135.27863 227.5837,135.27863 z M 299.5837,180.27863 C 317.8537,182.30863 322.1937,196.45863 324.5837,194.77863 C 353.0837,174.77863 301.8537,166.61863 292.5837,167.77863 C 288.5837,168.27863 295.0837,179.77863 299.5837,180.27863 z M 230.5837,130.77863 C 234.0837,133.27863 246.0837,143.27863 284.5837,134.77863 C 286.0537,134.45863 255.5837,134.27863 251.5837,133.27863 C 247.5837,132.27863 228.2137,129.08863 230.5837,130.77863 z M 297.0837,165.27863 C 334.5837,174.27863 324.6837,168.01863 326.0837,167.27863 C 334.5837,162.77863 325.2937,161.88863 326.5837,160.27863 C 330.7937,155.01863 319.5837,151.77863 296.0837,149.27863 C 290.5237,148.68863 279.5037,145.92863 279.0837,146.77863 C 275.5837,153.77863 292.2937,164.12863 297.0837,165.27863 z M 303.0837,148.77863 C 335.5837,154.27863 315.1937,144.08863 315.5837,143.77863 C 327.0837,134.77863 289.0837,134.77863 289.0837,134.77863 C 289.0837,134.77863 272.7537,138.65863 273.0837,139.27863 C 277.5837,147.77863 299.1137,148.10863 303.0837,148.77863 z M 241.5837,220.27863 C 241.5837,220.27863 212.5837,173.77863 218.5837,154.77863 C 219.7937,150.96863 205.5837,132.27863 212.0837,163.77863 C 212.1837,164.26863 210.8537,157.08863 208.5837,153.77863 C 206.3137,150.46863 203.1437,151.55863 205.0837,161.27863 C 209.9737,185.70863 241.5837,220.27863 241.5837,220.27863 z M 281.0837,50.27863 C 288.5837,48.27863 285.0837,45.77863 280.5837,44.77863 C 276.0837,43.77863 273.5837,52.27863 281.0837,50.27863 z M 179.3637,115.77863 C 155.0837,102.07863 129.0037,92.52863 127.1937,92.77863 C 105.9237,95.77863 112.5437,97.77863 80.603702,97.77863 C 54.773702,97.77863 62.873702,126.27863 75.033702,122.27863 C 78.253702,121.21863 126.7637,114.71863 152.5237,121.77863 C 156.3337,122.82863 162.6137,119.67863 165.6937,119.77863 C 180.8837,120.27863 182.9137,117.77863 179.3637,115.77863 z M 153.5337,77.27863 C 160.1137,83.27863 186.9637,121.27863 176.8337,107.27863 C 166.7037,93.27863 136.3137,60.27863 124.6637,56.77863 C 119.4237,55.20863 134.7937,67.27863 134.7937,67.27863 C 134.7937,67.27863 121.1237,56.27863 115.5437,55.27863 C 109.9737,54.27863 84.993702,53.34863 92.253702,59.27863 C 106.9337,71.27863 105.0437,74.65863 106.4337,75.27863 C 127.7037,84.77863 127.8337,89.83863 130.2337,90.77863 C 169.7437,106.27863 182.3637,115.05863 184.9337,114.77863 C 203.6737,112.77863 146.9537,71.27863 153.5337,77.27863 z M 125.6737,89.77863 C 127.0337,89.30863 122.6437,83.27863 105.9237,77.27863 C 99.453702,74.95863 77.123702,74.23863 65.403702,75.77863 C 57.813702,76.77863 56.273702,98.18863 70.973702,95.27863 C 76.043702,94.27863 96.803702,99.77863 125.6737,89.77863 z M 103.3937,73.77863 C 103.3937,73.77863 89.713702,46.77863 57.303702,58.27863 C 56.913702,58.41863 56.293702,61.27863 52.743702,63.77863 C 48.193702,66.98863 35.043702,72.18863 37.553702,71.77863 C 40.593702,71.27863 54.513702,64.25863 54.773702,68.27863 C 55.273702,76.27863 65.493702,74.01863 71.483702,73.27863 C 75.533702,72.77863 103.3937,73.77863 103.3937,73.77863 z M 43.123702,22.77863 C 71.053702,24.93863 37.043702,3.7786304 22.353702,20.27863 C 19.273702,23.73863 10.203702,21.27863 5.133702,29.27863 C 4.533702,30.22863 10.703702,20.27863 43.123702,22.77863 z M 59.333702,34.27863 C 61.353702,31.27863 34.433702,18.88863 25.393702,30.77863 C 23.873702,32.77863 17.793702,31.27863 10.703702,38.27863 C 9.693702,39.27863 15.763702,33.27863 29.443702,33.27863 C 32.993702,33.27863 57.303702,37.27863 59.333702,34.27863 z M 76.553702,42.77863 C 97.823702,47.77863 88.703702,55.27863 86.173702,54.77863 C 66.493702,50.89863 72.113702,41.73863 76.553702,42.77863 z M 71.483702,33.77863 C 76.183702,37.08863 75.533702,19.77863 65.913702,18.77863 C 56.293702,17.77863 64.393702,28.77863 71.483702,33.77863 z M 98.833702,44.77863 C 100.1837,42.10863 96.803702,35.27863 92.253702,34.77863 C 87.693702,34.27863 77.053702,36.77863 91.233702,42.27863 C 93.983702,43.34863 95.793702,50.77863 98.833702,44.77863 z M 51.733702,81.77863 C 47.683702,79.27863 42.103702,85.27863 46.663702,87.77863 C 51.223702,90.27863 55.783702,84.27863 51.733702,81.77863 z M 68.953702,46.77863 C 72.183702,47.68863 63.383702,42.77863 56.293702,42.27863 C 53.713702,42.09863 42.223702,34.85863 34.513702,46.27863 C 33.493702,47.77863 28.713702,46.49863 21.343702,53.77863 C 19.823702,55.27863 28.813702,46.52863 37.043702,49.77863 C 39.573702,50.77863 44.373702,57.04863 56.293702,45.27863 C 57.813702,43.77863 65.403702,45.77863 68.953702,46.77863 z M 26.403702,4.7786304 C 24.603702,4.5086304 15.263702,5.7786304 22.353702,10.77863 C 29.443702,15.77863 32.993702,5.7786304 26.403702,4.7786304 z M 175.8237,142.27863 C 155.0537,164.77863 134.2837,172.77863 132.7637,175.27863 C 105.7737,219.68863 114.4937,219.97863 116.0537,222.77863 C 121.6237,232.77863 126.4837,214.85863 125.1737,219.27863 C 115.5437,251.77863 177.8437,154.27863 183.4137,147.77863 C 188.0437,142.37863 178.9637,138.86863 175.8237,142.27863 z M 127.7037,179.77863 C 127.7037,179.77863 106.0937,177.27863 96.803702,204.77863 C 95.793702,207.77863 86.013702,219.66863 99.343702,215.27863 C 100.8637,214.77863 107.9537,227.27863 110.4837,216.27863 C 111.3037,212.72863 122.6437,189.27863 127.1937,182.27863 C 131.7537,175.27863 127.7037,179.77863 127.7037,179.77863 z M 178.8537,158.77863 C 175.6037,162.79863 125.9837,225.61863 133.7837,231.77863 C 136.3137,233.77863 141.2337,240.74863 154.0437,222.77863 C 182.9137,182.27863 182.9137,153.77863 178.8537,158.77863 z M 108.9637,182.77863 C 108.9637,182.77863 89.213702,175.27863 76.553702,198.77863 C 75.023702,201.60863 80.093702,204.27863 82.623702,202.77863 C 85.163702,201.27863 79.083702,209.77863 89.213702,211.27863 C 93.023702,211.84863 100.3537,190.77863 106.9337,185.77863 C 113.5237,180.77863 108.9637,182.77863 108.9637,182.77863 z M 156.5737,138.77863 C 131.1637,138.77863 123.1437,140.53863 123.1437,144.77863 C 123.1437,157.77863 109.1937,161.67863 109.4737,163.77863 C 110.9937,175.27863 101.9337,176.59863 105.9237,178.77863 C 125.1737,189.27863 192.0237,135.27863 172.2737,135.27863 C 151.6037,135.27863 161.1337,138.77863 156.5737,138.77863 z M 106.4337,167.77863 C 97.043702,166.61863 45.143702,174.77863 74.013702,194.77863 C 76.433702,196.45863 80.833702,182.30863 99.343702,180.27863 C 103.9037,179.77863 110.4837,168.27863 106.4337,167.77863 z M 147.9637,133.27863 C 143.9137,134.27863 113.0537,134.45863 114.5337,134.77863 C 153.5337,143.27863 165.6937,133.27863 169.2337,130.77863 C 171.6337,129.08863 152.0137,132.27863 147.9637,133.27863 z M 120.1037,146.77863 C 119.6737,145.92863 108.5137,148.68863 102.8837,149.27863 C 79.083702,151.77863 67.723702,155.01863 71.993702,160.27863 C 73.293702,161.88863 63.883702,162.77863 72.493702,167.27863 C 73.913702,168.01863 63.883702,174.27863 101.8737,165.27863 C 106.7237,164.12863 123.6537,153.77863 120.1037,146.77863 z M 126.1837,139.27863 C 126.5237,138.65863 109.9737,134.77863 109.9737,134.77863 C 109.9737,134.77863 71.483702,134.77863 83.133702,143.77863 C 83.533702,144.08863 62.873702,154.27863 95.793702,148.77863 C 99.823702,148.10863 121.6237,147.77863 126.1837,139.27863 z M 195.0637,161.27863 C 197.0337,151.55863 193.8137,150.46863 191.5237,153.77863 C 189.2237,157.08863 187.8737,164.26863 187.9737,163.77863 C 194.5637,132.27863 180.1737,150.96863 181.3937,154.77863 C 187.4637,173.77863 158.0937,220.27863 158.0937,220.27863 C 158.0937,220.27863 190.1137,185.70863 195.0637,161.27863 z M 118.5837,44.77863 C 114.0237,45.77863 110.4837,48.27863 118.0837,50.27863 C 125.6737,52.27863 123.1437,43.77863 118.5837,44.77863 z" id="path6"/>
  <path style="fill:#fff6e3;stroke:none;stroke-width:1" d="M 355.6937,52.38863 C 351.2337,52.94863 347.1937,53.38863 346.1937,47.88863 C 345.1937,42.38863 347.6937,40.38863 355.1937,42.38863 C 362.6937,44.38863 367.6937,50.88863 355.6937,52.38863 z M 319.1937,55.88863 C 319.1937,55.88863 300.4737,60.30863 317.6937,47.38863 C 325.6937,41.38863 326.1937,46.38863 326.6937,49.38863 C 327.4437,53.85863 319.1937,55.88863 319.1937,55.88863 z M 376.1937,15.38863 C 367.8437,13.71863 368.1937,8.8886304 377.1937,6.8886304 C 378.6637,6.5686304 381.1937,16.38863 376.1937,15.38863 z M 381.1937,15.38863 C 383.6937,14.88863 387.6937,15.88863 388.1937,19.38863 C 388.6937,22.88863 384.6937,24.88863 382.1937,22.88863 C 379.6937,20.88863 378.6937,15.88863 381.1937,15.38863 z M 375.1937,26.38863 C 377.6937,25.38863 385.1937,26.88863 384.6937,29.88863 C 384.1937,32.88863 378.1937,33.38863 375.6937,31.88863 C 373.1937,30.38863 372.6937,27.38863 375.1937,26.38863 z M 376.1937,43.88863 C 379.1937,41.38863 382.6937,43.88863 383.6937,45.38863 C 384.6937,46.88863 379.6937,48.88863 378.1937,49.38863 C 376.6937,49.88863 373.1937,46.38863 376.1937,43.88863 z M 387.6937,6.8886304 C 387.6937,6.8886304 391.6937,6.8886304 390.6937,8.3886304 C 389.6937,9.8886304 386.6937,9.8886304 386.6937,9.8886304 L 387.6937,6.8886304 z M 393.6937,15.88863 C 393.6937,15.88863 397.6937,15.88863 396.6937,17.38863 C 395.6937,18.88863 392.6937,18.88863 392.6937,18.88863 L 393.6937,15.88863 z M 361.1937,63.88863 C 361.1937,63.88863 366.1937,65.88863 365.1937,67.38863 C 364.1937,68.88863 362.6937,71.38863 359.1937,67.88863 C 355.6937,64.38863 361.1937,63.88863 361.1937,63.88863 z M 347.6937,83.38863 C 350.6937,80.88863 354.1937,83.38863 355.1937,84.88863 C 356.1937,86.38863 351.1937,88.38863 349.6937,88.88863 C 348.1937,89.38863 344.6937,85.88863 347.6937,83.38863 z M 349.6937,73.38863 C 352.6937,70.88863 355.1937,74.38863 356.1937,75.88863 C 357.1937,77.38863 353.1937,78.38863 351.6937,78.88863 C 350.1937,79.38863 346.6937,75.88863 349.6937,73.38863 z M 332.6937,39.88863 C 329.1237,40.08863 323.1937,38.38863 332.1937,32.38863 C 340.5137,26.84863 340.1937,28.38863 340.6937,31.38863 C 341.4437,35.85863 336.2637,39.69863 332.6937,39.88863 z M 302.1937,48.88863 C 302.1937,48.88863 298.6937,45.88863 305.6937,39.88863 C 313.2937,33.38863 312.1937,35.88863 312.6937,38.88863 C 313.4437,43.35863 302.1937,48.88863 302.1937,48.88863 z M 333.1937,22.38863 C 333.1937,22.38863 339.1937,21.38863 338.1937,22.88863 C 337.1937,24.38863 334.6937,29.88863 331.1937,26.38863 C 327.6937,22.88863 333.1937,22.38863 333.1937,22.38863 z M 366.6937,52.88863 C 368.0737,52.88863 369.1937,54.01863 369.1937,55.38863 C 369.1937,56.76863 368.0737,57.88863 366.6937,57.88863 C 365.3237,57.88863 364.1937,56.76863 364.1937,55.38863 C 364.1937,54.01863 365.3237,52.88863 366.6937,52.88863 z M 361.6937,77.38863 C 363.0737,77.38863 364.1937,78.51863 364.1937,79.88863 C 364.1937,81.26863 363.0737,82.38863 361.6937,82.38863 C 360.3237,82.38863 359.1937,81.26863 359.1937,79.88863 C 359.1937,78.51863 360.3237,77.38863 361.6937,77.38863 z M 357.6937,87.38863 C 359.0737,87.38863 360.1937,88.51863 360.1937,89.88863 C 360.1937,91.26863 359.0737,92.38863 357.6937,92.38863 C 356.3237,92.38863 355.1937,91.26863 355.1937,89.88863 C 355.1937,88.51863 356.3237,87.38863 357.6937,87.38863 z M 341.6937,93.88863 C 343.0737,93.88863 344.1937,95.01863 344.1937,96.38863 C 344.1937,97.76863 343.0737,98.88863 341.6937,98.88863 C 340.3237,98.88863 339.1937,97.76863 339.1937,96.38863 C 339.1937,95.01863 340.3237,93.88863 341.6937,93.88863 z M 350.1937,95.38863 C 351.5737,95.38863 354.1937,97.51863 354.1937,98.88863 C 354.1937,100.26863 351.5737,100.38863 350.1937,100.38863 C 348.8237,100.38863 347.6937,99.26863 347.6937,97.88863 C 347.6937,96.51863 348.8237,95.38863 350.1937,95.38863 z M 374.1937,56.38863 C 375.5737,56.38863 376.6937,57.51863 376.6937,58.88863 C 376.6937,60.26863 375.5737,61.38863 374.1937,61.38863 C 372.8237,61.38863 371.6937,60.26863 371.6937,58.88863 C 371.6937,57.51863 372.8237,56.38863 374.1937,56.38863 z M 387.6937,32.88863 C 389.0737,32.88863 390.1937,34.01863 390.1937,35.38863 C 390.1937,36.76863 389.0737,37.88863 387.6937,37.88863 C 386.3237,37.88863 385.1937,36.76863 385.1937,35.38863 C 385.1937,34.01863 386.3237,32.88863 387.6937,32.88863 z M 292.6937,40.88863 C 295.0137,41.81863 306.1937,34.38863 302.6937,33.38863 C 299.1937,32.38863 290.1937,39.88863 292.6937,40.88863 z M 311.6937,27.88863 C 314.1937,28.38863 321.6937,25.38863 318.1937,24.38863 C 314.6937,23.38863 309.0537,27.36863 311.6937,27.88863 z M 263.6937,58.38863 C 269.1937,55.38863 284.6937,47.88863 277.1937,48.88863 C 269.6937,49.88863 258.9737,60.96863 263.6937,58.38863 z M 356.1937,8.8886304 C 358.6937,9.3886304 366.1937,6.3886304 362.6937,5.3886304 C 359.1937,4.3886304 353.5537,8.3686304 356.1937,8.8886304 z M 284.1937,45.38863 C 286.6937,45.88863 291.6937,43.38863 288.1937,42.38863 C 284.6937,41.38863 281.5537,44.86863 284.1937,45.38863 z M 347.1937,107.88863 C 348.5737,107.88863 349.6937,109.51863 349.6937,110.88863 C 349.6937,112.26863 349.0737,112.38863 347.6937,112.38863 C 346.3237,112.38863 345.1937,111.26863 345.1937,109.88863 C 345.1937,108.51863 345.8237,107.88863 347.1937,107.88863 z M 339.6937,107.38863 C 341.0737,107.38863 343.1937,108.01863 343.1937,109.38863 C 343.1937,110.76863 340.5737,110.38863 339.1937,110.38863 C 337.8237,110.38863 336.6937,109.26863 336.6937,107.88863 C 336.6937,106.51863 338.3237,107.38863 339.6937,107.38863 z M 341.6937,121.88863 C 343.0737,121.88863 345.6937,124.01863 345.6937,125.38863 C 345.6937,126.76863 343.0737,126.88863 341.6937,126.88863 C 340.3237,126.88863 339.1937,125.76863 339.1937,124.38863 C 339.1937,123.01863 340.3237,121.88863 341.6937,121.88863 z M 329.6937,142.38863 C 333.6937,141.38863 333.6937,143.38863 334.6937,146.88863 C 335.6937,150.38863 342.7637,161.76863 331.1937,147.88863 C 328.6937,144.88863 325.6937,143.38863 329.6937,142.38863 z M 341.6937,154.38863 C 343.0737,154.38863 344.1937,155.51863 344.1937,156.88863 C 344.1937,158.26863 343.0737,159.38863 341.6937,159.38863 C 340.3237,159.38863 339.1937,158.26863 339.1937,156.88863 C 339.1937,155.51863 340.3237,154.38863 341.6937,154.38863 z M 344.1937,163.38863 C 345.5737,163.38863 346.6937,164.51863 346.6937,165.88863 C 346.6937,167.26863 345.5737,168.38863 344.1937,168.38863 C 342.8237,168.38863 341.6937,167.26863 341.6937,165.88863 C 341.6937,164.51863 342.8237,163.38863 344.1937,163.38863 z M 344.3637,172.38863 C 345.7337,172.38863 347.6937,175.51863 347.6937,176.88863 C 347.6937,178.26863 346.5737,179.38863 345.1937,179.38863 C 343.8237,179.38863 341.0337,177.76863 341.0337,176.38863 C 341.0337,175.01863 342.9837,172.38863 344.3637,172.38863 z M 345.6937,188.38863 C 347.0737,188.38863 346.6937,188.51863 346.6937,189.88863 C 346.6937,191.26863 346.5737,190.38863 345.1937,190.38863 C 343.8237,190.38863 344.1937,191.26863 344.1937,189.88863 C 344.1937,188.51863 344.3237,188.38863 345.6937,188.38863 z M 332.1937,155.38863 C 333.5737,155.38863 333.1937,155.51863 333.1937,156.88863 C 333.1937,158.26863 333.0737,157.38863 331.6937,157.38863 C 330.3237,157.38863 330.6937,158.26863 330.6937,156.88863 C 330.6937,155.51863 330.8237,155.38863 332.1937,155.38863 z M 335.1937,167.88863 C 336.5737,167.88863 336.1937,168.01863 336.1937,169.38863 C 336.1937,170.76863 336.4037,174.38863 335.0337,174.38863 C 333.6537,174.38863 333.6937,170.76863 333.6937,169.38863 C 333.6937,168.01863 333.8237,167.88863 335.1937,167.88863 z M 338.6937,181.88863 C 340.0737,181.88863 339.6937,182.01863 339.6937,183.38863 C 339.6937,184.76863 339.5737,183.88863 338.1937,183.88863 C 336.8237,183.88863 337.1937,184.76863 337.1937,183.38863 C 337.1937,182.01863 337.3237,181.88863 338.6937,181.88863 z M 332.5337,195.38863 C 333.9037,195.38863 333.6937,195.51863 333.6937,196.88863 C 333.6937,198.26863 333.4037,197.38863 332.0337,197.38863 C 330.6537,197.38863 331.1937,198.26863 331.1937,196.88863 C 331.1937,195.51863 331.1537,195.38863 332.5337,195.38863 z M 341.3637,198.72863 C 342.7337,198.72863 344.0337,200.67863 344.0337,202.05863 C 344.0337,203.42863 341.0737,205.88863 339.6937,205.88863 C 338.3237,205.88863 338.6937,206.76863 338.6937,205.38863 C 338.6937,204.01863 339.9837,198.72863 341.3637,198.72863 z M 335.6937,213.05863 C 337.0737,213.05863 339.3637,212.67863 339.3637,214.05863 C 339.3637,215.42863 336.0737,217.88863 334.6937,217.88863 C 333.3237,217.88863 333.6937,218.76863 333.6937,217.38863 C 333.6937,216.01863 334.3237,213.05863 335.6937,213.05863 z M 327.1937,205.88863 C 328.5737,205.88863 328.1937,206.01863 328.1937,207.38863 C 328.1937,208.76863 328.0737,207.88863 326.6937,207.88863 C 325.3237,207.88863 325.6937,208.76863 325.6937,207.38863 C 325.6937,206.01863 325.8237,205.88863 327.1937,205.88863 z M 324.6937,225.05863 C 326.0737,225.05863 327.3637,226.67863 327.3637,228.05863 C 327.3637,229.42863 325.0737,228.88863 323.6937,228.88863 C 322.3237,228.88863 322.6937,229.76863 322.6937,228.38863 C 322.6937,227.01863 323.3237,225.05863 324.6937,225.05863 z M 316.3637,230.38863 C 317.7337,230.38863 317.0337,232.01863 317.0337,233.38863 C 317.0337,234.76863 312.0737,237.88863 310.6937,237.88863 C 309.3237,237.88863 309.6937,238.76863 309.6937,237.38863 C 309.6937,236.01863 314.9837,230.38863 316.3637,230.38863 z M 317.1937,214.38863 C 318.5737,214.38863 318.1937,214.51863 318.1937,215.88863 C 318.1937,217.26863 318.0737,216.38863 316.6937,216.38863 C 315.3237,216.38863 315.6937,217.26863 315.6937,215.88863 C 315.6937,214.51863 315.8237,214.38863 317.1937,214.38863 z M 305.1937,222.88863 C 306.5737,222.88863 311.0337,224.67863 311.0337,226.05863 C 311.0337,227.42863 305.4037,229.72863 304.0337,229.72863 C 302.6537,229.72863 301.6937,227.42863 301.6937,226.05863 C 301.6937,224.67863 303.8237,222.88863 305.1937,222.88863 z M 292.1937,227.38863 C 293.5737,227.38863 293.1937,227.51863 293.1937,228.88863 C 293.1937,230.26863 293.0737,229.38863 291.6937,229.38863 C 290.3237,229.38863 290.6937,230.26863 290.6937,228.88863 C 290.6937,227.51863 290.8237,227.38863 292.1937,227.38863 z M 300.1937,239.38863 C 301.5737,239.38863 301.1937,239.51863 301.1937,240.88863 C 301.1937,242.26863 301.0737,241.38863 299.6937,241.38863 C 298.3237,241.38863 298.6937,242.26863 298.6937,240.88863 C 298.6937,239.51863 298.8237,239.38863 300.1937,239.38863 z M 297.1937,240.38863 C 298.5737,240.38863 298.1937,240.51863 298.1937,241.88863 C 298.1937,243.26863 298.0737,242.38863 296.6937,242.38863 C 295.3237,242.38863 295.6937,243.26863 295.6937,241.88863 C 295.6937,240.51863 295.8237,240.38863 297.1937,240.38863 z M 285.6937,240.72863 C 286.6137,240.72863 287.6937,242.13863 287.6937,243.05863 C 287.6937,243.97863 287.6137,243.38863 286.6937,243.38863 C 285.7837,243.38863 283.3637,244.63863 283.3637,243.72863 C 283.3637,242.80863 284.7837,240.72863 285.6937,240.72863 z M 288.6937,243.38863 C 289.6137,243.38863 289.3637,243.47863 289.3637,244.38863 C 289.3637,245.30863 289.2837,244.72863 288.3637,244.72863 C 287.4437,244.72863 287.6937,245.30863 287.6937,244.38863 C 287.6937,243.47863 287.7837,243.38863 288.6937,243.38863 z M 283.3637,230.38863 C 284.2837,230.38863 285.6937,233.80863 285.6937,234.72863 C 285.6937,235.63863 282.6137,235.38863 281.6937,235.38863 C 280.7837,235.38863 279.3637,232.63863 279.3637,231.72863 C 279.3637,230.80863 282.4437,230.38863 283.3637,230.38863 z M 272.0337,241.38863 C 273.4037,241.38863 273.1937,241.51863 273.1937,242.88863 C 273.1937,244.26863 272.9037,243.38863 271.5337,243.38863 C 270.1537,243.38863 270.6937,244.26863 270.6937,242.88863 C 270.6937,241.51863 270.6537,241.38863 272.0337,241.38863 z M 269.0337,234.38863 C 270.4037,234.38863 268.3637,237.67863 268.3637,239.05863 C 268.3637,240.42863 263.9037,240.88863 262.5337,240.88863 C 261.1537,240.88863 263.6937,239.09863 263.6937,237.72863 C 263.6937,236.34863 267.6537,234.38863 269.0337,234.38863 z M 44.193702,51.55863 C 48.663702,52.11863 52.693702,52.55863 53.693702,47.05863 C 54.693702,41.55863 52.193702,39.55863 44.693702,41.55863 C 37.193702,43.55863 32.193702,50.05863 44.193702,51.55863 z M 80.693702,55.05863 C 80.693702,55.05863 99.413702,59.46863 82.193702,46.55863 C 74.193702,40.55863 73.693702,45.55863 73.193702,48.55863 C 72.453702,53.02863 80.693702,55.05863 80.693702,55.05863 z M 23.693702,14.55863 C 32.043702,12.88863 31.693702,8.0586304 22.693702,6.0586304 C 21.233702,5.7286304 18.693702,15.55863 23.693702,14.55863 z M 18.693702,14.55863 C 16.193702,14.05863 12.193702,15.05863 11.693702,18.55863 C 11.193702,22.05863 15.193702,24.05863 17.693702,22.05863 C 20.193702,20.05863 21.193702,15.05863 18.693702,14.55863 z M 24.693702,25.55863 C 22.193702,24.55863 14.693702,26.05863 15.193702,29.05863 C 15.693702,32.05863 21.693702,32.55863 24.193702,31.05863 C 26.693702,29.55863 27.193702,26.55863 24.693702,25.55863 z M 23.693702,43.05863 C 20.693702,40.55863 17.193702,43.05863 16.193702,44.55863 C 15.193702,46.05863 20.193702,48.05863 21.693702,48.55863 C 23.193702,49.05863 26.693702,45.55863 23.693702,43.05863 z M 12.193702,6.0586304 C 12.193702,6.0586304 8.193702,6.0586304 9.193702,7.5586304 C 10.193702,9.0586304 13.193702,9.0586304 13.193702,9.0586304 L 12.193702,6.0586304 z M 6.193702,15.05863 C 6.193702,15.05863 2.193702,15.05863 3.193702,16.55863 C 4.193702,18.05863 7.193702,18.05863 7.193702,18.05863 L 6.193702,15.05863 z M 38.693702,63.05863 C 38.693702,63.05863 33.693702,65.05863 34.693702,66.55863 C 35.693702,68.05863 37.193702,70.55863 40.693702,67.05863 C 44.193702,63.55863 38.693702,63.05863 38.693702,63.05863 z M 52.193702,82.55863 C 49.193702,80.05863 45.693702,82.55863 44.693702,84.05863 C 43.693702,85.55863 48.693702,87.55863 50.193702,88.05863 C 51.693702,88.55863 55.193702,85.05863 52.193702,82.55863 z M 50.193702,72.55863 C 47.193702,70.05863 44.693702,73.55863 43.693702,75.05863 C 42.693702,76.55863 46.693702,77.55863 48.193702,78.05863 C 49.693702,78.55863 53.193702,75.05863 50.193702,72.55863 z M 67.193702,39.05863 C 70.763702,39.25863 76.693702,37.55863 67.693702,31.55863 C 59.373702,26.00863 59.693702,27.55863 59.193702,30.55863 C 58.453702,35.02863 63.623702,38.85863 67.193702,39.05863 z M 97.693702,48.05863 C 97.693702,48.05863 101.1937,45.05863 94.193702,39.05863 C 86.603702,32.54863 87.693702,35.05863 87.193702,38.05863 C 86.453702,42.52863 97.693702,48.05863 97.693702,48.05863 z M 66.693702,21.55863 C 66.693702,21.55863 60.693702,20.55863 61.693702,22.05863 C 62.693702,23.55863 65.193702,29.05863 68.693702,25.55863 C 72.193702,22.05863 66.693702,21.55863 66.693702,21.55863 z M 33.193702,52.05863 C 31.823702,52.05863 30.693702,53.18863 30.693702,54.55863 C 30.693702,55.93863 31.823702,57.05863 33.193702,57.05863 C 34.573702,57.05863 35.693702,55.93863 35.693702,54.55863 C 35.693702,53.18863 34.573702,52.05863 33.193702,52.05863 z M 38.193702,76.55863 C 36.823702,76.55863 35.693702,77.68863 35.693702,79.05863 C 35.693702,80.43863 36.823702,81.55863 38.193702,81.55863 C 39.573702,81.55863 40.693702,80.43863 40.693702,79.05863 C 40.693702,77.68863 39.573702,76.55863 38.193702,76.55863 z M 42.193702,86.55863 C 40.823702,86.55863 39.693702,87.68863 39.693702,89.05863 C 39.693702,90.43863 40.823702,91.55863 42.193702,91.55863 C 43.573702,91.55863 44.693702,90.43863 44.693702,89.05863 C 44.693702,87.68863 43.573702,86.55863 42.193702,86.55863 z M 58.193702,93.05863 C 56.823702,93.05863 55.693702,94.18863 55.693702,95.55863 C 55.693702,96.93863 56.823702,98.05863 58.193702,98.05863 C 59.573702,98.05863 60.693702,96.93863 60.693702,95.55863 C 60.693702,94.18863 59.573702,93.05863 58.193702,93.05863 z M 49.693702,94.55863 C 48.323702,94.55863 45.693702,96.68863 45.693702,98.05863 C 45.693702,99.43863 48.323702,99.55863 49.693702,99.55863 C 51.073702,99.55863 52.193702,98.43863 52.193702,97.05863 C 52.193702,95.68863 51.073702,94.55863 49.693702,94.55863 z M 25.693702,55.55863 C 24.323702,55.55863 23.193702,56.68863 23.193702,58.05863 C 23.193702,59.43863 24.323702,60.55863 25.693702,60.55863 C 27.073702,60.55863 28.193702,59.43863 28.193702,58.05863 C 28.193702,56.68863 27.073702,55.55863 25.693702,55.55863 z M 12.193702,32.05863 C 10.823702,32.05863 9.693702,33.18863 9.693702,34.55863 C 9.693702,35.93863 10.823702,37.05863 12.193702,37.05863 C 13.573702,37.05863 14.693702,35.93863 14.693702,34.55863 C 14.693702,33.18863 13.573702,32.05863 12.193702,32.05863 z M 107.1937,40.05863 C 104.8737,40.98863 93.693702,33.55863 97.193702,32.55863 C 100.6937,31.55863 109.6937,39.05863 107.1937,40.05863 z M 88.193702,27.05863 C 85.693702,27.55863 78.193702,24.55863 81.693702,23.55863 C 85.193702,22.55863 90.833702,26.52863 88.193702,27.05863 z M 136.1937,57.55863 C 130.6937,54.55863 115.1937,47.05863 122.6937,48.05863 C 130.1937,49.05863 140.9237,60.13863 136.1937,57.55863 z M 43.693702,8.0586304 C 41.193702,8.5586304 33.693702,5.5586304 37.193702,4.5586304 C 40.693702,3.5586304 46.333702,7.5286304 43.693702,8.0586304 z M 115.6937,44.55863 C 113.1937,45.05863 108.1937,42.55863 111.6937,41.55863 C 115.1937,40.55863 118.3337,44.02863 115.6937,44.55863 z M 52.693702,107.05863 C 51.323702,107.05863 50.193702,108.68863 50.193702,110.05863 C 50.193702,111.43863 50.823702,111.55863 52.193702,111.55863 C 53.573702,111.55863 54.693702,110.43863 54.693702,109.05863 C 54.693702,107.68863 54.073702,107.05863 52.693702,107.05863 z M 60.193702,106.55863 C 58.823702,106.55863 56.693702,107.18863 56.693702,108.55863 C 56.693702,109.93863 59.323702,109.55863 60.693702,109.55863 C 62.073702,109.55863 63.193702,108.43863 63.193702,107.05863 C 63.193702,105.68863 61.573702,106.55863 60.193702,106.55863 z M 58.193702,121.05863 C 56.823702,121.05863 54.193702,123.18863 54.193702,124.55863 C 54.193702,125.93863 56.823702,126.05863 58.193702,126.05863 C 59.573702,126.05863 60.693702,124.93863 60.693702,123.55863 C 60.693702,122.18863 59.573702,121.05863 58.193702,121.05863 z M 70.193702,141.55863 C 66.193702,140.55863 66.193702,142.55863 65.193702,146.05863 C 64.193702,149.55863 57.133702,160.93863 68.693702,147.05863 C 71.193702,144.05863 74.193702,142.55863 70.193702,141.55863 z M 58.193702,153.55863 C 56.823702,153.55863 55.693702,154.67863 55.693702,156.05863 C 55.693702,157.42863 56.823702,158.55863 58.193702,158.55863 C 59.573702,158.55863 60.693702,157.42863 60.693702,156.05863 C 60.693702,154.67863 59.573702,153.55863 58.193702,153.55863 z M 55.693702,162.55863 C 54.323702,162.55863 53.193702,163.67863 53.193702,165.05863 C 53.193702,166.42863 54.323702,167.55863 55.693702,167.55863 C 57.073702,167.55863 58.193702,166.42863 58.193702,165.05863 C 58.193702,163.67863 57.073702,162.55863 55.693702,162.55863 z M 55.533702,171.55863 C 54.153702,171.55863 52.193702,174.67863 52.193702,176.05863 C 52.193702,177.42863 53.323702,178.55863 54.693702,178.55863 C 56.073702,178.55863 58.863702,176.92863 58.863702,175.55863 C 58.863702,174.17863 56.903702,171.55863 55.533702,171.55863 z M 54.193702,187.55863 C 52.823702,187.55863 53.193702,187.67863 53.193702,189.05863 C 53.193702,190.42863 53.323702,189.55863 54.693702,189.55863 C 56.073702,189.55863 55.693702,190.42863 55.693702,189.05863 C 55.693702,187.67863 55.573702,187.55863 54.193702,187.55863 z M 67.693702,154.55863 C 66.323702,154.55863 66.693702,154.67863 66.693702,156.05863 C 66.693702,157.42863 66.823702,156.55863 68.193702,156.55863 C 69.573702,156.55863 69.193702,157.42863 69.193702,156.05863 C 69.193702,154.67863 69.073702,154.55863 67.693702,154.55863 z M 64.693702,167.05863 C 63.323702,167.05863 63.693702,167.17863 63.693702,168.55863 C 63.693702,169.92863 63.493702,173.55863 64.863702,173.55863 C 66.243702,173.55863 66.193702,169.92863 66.193702,168.55863 C 66.193702,167.17863 66.073702,167.05863 64.693702,167.05863 z M 61.193702,181.05863 C 59.823702,181.05863 60.193702,181.17863 60.193702,182.55863 C 60.193702,183.92863 60.323702,183.05863 61.693702,183.05863 C 63.073702,183.05863 62.693702,183.92863 62.693702,182.55863 C 62.693702,181.17863 62.573702,181.05863 61.193702,181.05863 z M 67.363702,194.55863 C 65.993702,194.55863 66.193702,194.67863 66.193702,196.05863 C 66.193702,197.42863 66.493702,196.55863 67.863702,196.55863 C 69.243702,196.55863 68.693702,197.42863 68.693702,196.05863 C 68.693702,194.67863 68.743702,194.55863 67.363702,194.55863 z M 58.533702,197.88863 C 57.153702,197.88863 55.863702,199.84863 55.863702,201.22863 C 55.863702,202.59863 58.823702,205.05863 60.193702,205.05863 C 61.573702,205.05863 61.193702,205.92863 61.193702,204.55863 C 61.193702,203.17863 59.903702,197.88863 58.533702,197.88863 z M 64.193702,212.22863 C 62.823702,212.22863 60.533702,211.84863 60.533702,213.22863 C 60.533702,214.59863 63.823702,217.05863 65.193702,217.05863 C 66.573702,217.05863 66.193702,217.92863 66.193702,216.55863 C 66.193702,215.17863 65.573702,212.22863 64.193702,212.22863 z M 72.693702,205.05863 C 71.323702,205.05863 71.693702,205.17863 71.693702,206.55863 C 71.693702,207.92863 71.823702,207.05863 73.193702,207.05863 C 74.573702,207.05863 74.193702,207.92863 74.193702,206.55863 C 74.193702,205.17863 74.073702,205.05863 72.693702,205.05863 z M 75.193702,224.22863 C 73.823702,224.22863 72.533702,225.84863 72.533702,227.22863 C 72.533702,228.59863 74.823702,228.05863 76.193702,228.05863 C 77.573702,228.05863 77.193702,228.92863 77.193702,227.55863 C 77.193702,226.17863 76.573702,224.22863 75.193702,224.22863 z M 83.533702,229.55863 C 82.153702,229.55863 82.863702,231.17863 82.863702,232.55863 C 82.863702,233.92863 87.823702,237.05863 89.193702,237.05863 C 90.573702,237.05863 90.193702,237.92863 90.193702,236.55863 C 90.193702,235.17863 84.903702,229.55863 83.533702,229.55863 z M 82.693702,213.55863 C 81.323702,213.55863 81.693702,213.67863 81.693702,215.05863 C 81.693702,216.42863 81.823702,215.55863 83.193702,215.55863 C 84.573702,215.55863 84.193702,216.42863 84.193702,215.05863 C 84.193702,213.67863 84.073702,213.55863 82.693702,213.55863 z M 94.693702,222.05863 C 93.323702,222.05863 88.863702,223.84863 88.863702,225.22863 C 88.863702,226.59863 94.493702,228.88863 95.863702,228.88863 C 97.243702,228.88863 98.193702,226.59863 98.193702,225.22863 C 98.193702,223.84863 96.073702,222.05863 94.693702,222.05863 z M 107.6937,226.55863 C 106.3237,226.55863 106.6937,226.67863 106.6937,228.05863 C 106.6937,229.42863 106.8237,228.55863 108.1937,228.55863 C 109.5737,228.55863 109.1937,229.42863 109.1937,228.05863 C 109.1937,226.67863 109.0737,226.55863 107.6937,226.55863 z M 99.693702,238.55863 C 98.323702,238.55863 98.693702,238.67863 98.693702,240.05863 C 98.693702,241.42863 98.823702,240.55863 100.1937,240.55863 C 101.5737,240.55863 101.1937,241.42863 101.1937,240.05863 C 101.1937,238.67863 101.0737,238.55863 99.693702,238.55863 z M 102.6937,239.55863 C 101.3237,239.55863 101.6937,239.67863 101.6937,241.05863 C 101.6937,242.42863 101.8237,241.55863 103.1937,241.55863 C 104.5737,241.55863 104.1937,242.42863 104.1937,241.05863 C 104.1937,239.67863 104.0737,239.55863 102.6937,239.55863 z M 114.1937,239.88863 C 113.2837,239.88863 112.1937,241.30863 112.1937,242.22863 C 112.1937,243.13863 112.2837,242.55863 113.1937,242.55863 C 114.1137,242.55863 116.5337,243.80863 116.5337,242.88863 C 116.5337,241.97863 115.1137,239.88863 114.1937,239.88863 z M 111.1937,242.55863 C 110.2837,242.55863 110.5337,242.63863 110.5337,243.55863 C 110.5337,244.47863 110.6137,243.88863 111.5337,243.88863 C 112.4437,243.88863 112.1937,244.47863 112.1937,243.55863 C 112.1937,242.63863 112.1137,242.55863 111.1937,242.55863 z M 116.5337,229.55863 C 115.6137,229.55863 114.1937,232.97863 114.1937,233.88863 C 114.1937,234.80863 117.2837,234.55863 118.1937,234.55863 C 119.1137,234.55863 120.5337,231.80863 120.5337,230.88863 C 120.5337,229.97863 117.4437,229.55863 116.5337,229.55863 z M 127.8637,240.55863 C 126.4937,240.55863 126.6937,240.67863 126.6937,242.05863 C 126.6937,243.42863 126.9937,242.55863 128.3637,242.55863 C 129.7437,242.55863 129.1937,243.42863 129.1937,242.05863 C 129.1937,240.67863 129.2437,240.55863 127.8637,240.55863 z M 130.8637,233.55863 C 129.4937,233.55863 131.5337,236.84863 131.5337,238.22863 C 131.5337,239.59863 135.9937,240.05863 137.3637,240.05863 C 138.7437,240.05863 136.1937,238.26863 136.1937,236.88863 C 136.1937,235.51863 132.2437,233.55863 130.8637,233.55863 z M 202.9637,101.45863 C 201.5937,101.45863 201.7937,101.58863 201.7937,102.95863 C 201.7937,104.33863 202.0937,103.45863 203.4637,103.45863 C 204.8437,103.45863 204.2937,104.33863 204.2937,102.95863 C 204.2937,101.58863 204.3437,101.45863 202.9637,101.45863 z M 197.4637,101.45863 C 196.0937,101.45863 196.2937,101.58863 196.2937,102.95863 C 196.2937,104.33863 196.5937,103.45863 197.9637,103.45863 C 199.3437,103.45863 198.7937,104.33863 198.7937,102.95863 C 198.7937,101.58863 198.8437,101.45863 197.4637,101.45863 z M 202.9637,110.45863 C 201.5937,110.45863 201.7937,110.58863 201.7937,111.95863 C 201.7937,113.33863 202.0937,112.45863 203.4637,112.45863 C 204.8437,112.45863 204.2937,113.33863 204.2937,111.95863 C 204.2937,110.58863 204.3437,110.45863 202.9637,110.45863 z M 196.8637,110.35863 C 195.4937,110.35863 195.6937,110.48863 195.6937,111.85863 C 195.6937,113.23863 195.9937,112.35863 197.3637,112.35863 C 198.7437,112.35863 198.1937,113.23863 198.1937,111.85863 C 198.1937,110.48863 198.2437,110.35863 196.8637,110.35863 z M 204.9637,120.95863 C 203.5937,120.95863 203.9637,122.08863 203.9637,123.45863 C 203.9637,124.83863 204.3837,127.95863 205.7637,127.95863 C 207.1337,127.95863 206.2937,123.83863 206.2937,122.45863 C 206.2937,121.08863 206.3437,120.95863 204.9637,120.95863 z M 195.9637,120.95863 C 194.5937,120.95863 194.5637,122.18863 194.5637,123.55863 C 194.5637,124.93863 193.5937,128.15863 194.9637,128.15863 C 196.3437,128.15863 196.7637,124.33863 196.7637,122.95863 C 196.7637,121.58863 197.3437,120.95863 195.9637,120.95863 z" id="path8"/>
<!-- Generated by Jasc WebDraw PR4(tm) on 06/07/01 12:18:39 --></svg>