<?xml version="1.0" encoding="utf-8"?>
<svg version="1.1" viewBox="0 0 200 200" xmlns="http://www.w3.org/2000/svg" xmlns:cc="http://creativecommons.org/ns#" xmlns:dc="http://purl.org/dc/elements/1.1/" xmlns:rdf="http://www.w3.org/1999/02/22-rdf-syntax-ns#" xmlns:svg="http://www.w3.org/2000/svg" xmlns:xlink="http://www.w3.org/1999/xlink">
  <title>Animated Dice 3D</title>
  <metadata>
    <rdf:RDF>
      <cc:Work rdf:About="">
        <dc:format>image/svg+xml</dc:format>
        <dc:title>Animated Rotating 3D object</dc:title>
        <dc:creator>
          <cc:Agent>
            <dc:title>Jarda</dc:title>
          </cc:Agent>
        </dc:creator>
        <cc:license rdf:resource="http://creativecommons.org/licenses/by-sa/4.0/"/>
        <dc:subject>
          <rdf:Bag>
            <rdf:li>3D</rdf:li>
            <rdf:li>animated</rdf:li>
            <rdf:li>dice</rdf:li>
            <rdf:li>object</rdf:li>
            <rdf:li>rotating</rdf:li>
            <rdf:li>volumetric</rdf:li>
          </rdf:Bag>
        </dc:subject>
        <dc:description>Animated Rotating 3D object</dc:description>
      </cc:Work>
    </rdf:RDF>
  </metadata>
  <defs id="animation_styles">
    <style type="text/css">
      @keyframes rotate360 {
        from { transform: rotate(0deg); }
        to   { transform: rotate(360deg); }
      }
      @-moz-keyframes rotate360 {
        from { -moz-transform: rotate(0deg); }
        to   { -moz-transform: rotate(360deg); }
      }
      @-webkit-keyframes rotate360 {
        from { -webkit-transform: rotate(0deg); }
        to   { -webkit-transform: rotate(360deg); }
      }

      .rotate_vert {
         animation: rotate360 5s linear infinite;
        -moz-animation: rotate360 5s linear infinite;
        -webkit-animation: rotate360 5s linear infinite;
      }

      .rotate_horiz {
         animation: rotate360 5s linear infinite;
         transform-origin: 50% 50%;
        -moz-animation: rotate360 5s linear infinite;
        -moz-transform-origin: 50% 50%;
        -webkit-animation: rotate360 5s linear infinite;
        -webkit-transform-origin: 50% 50%;
      }

      .object3D { stroke: #555555; fill: #eeeeee ; stroke-width: 1 }
    </style>
  </defs>
  <defs id="slices">
    <path d="M -38.8406 -35 L -38.8406 35 c 0 2.7157 2.7157 3.84057 3.84057 3.84057 L 35 38.8406 c 2.7157 0 3.84057 -2.7157 3.84057 -3.84057 L 38.8406 -35 c 0 -2.7157 -2.7157 -3.84057 -3.84057 -3.84057 L -35 -38.8406 c -2.7157 0 -3.84057 2.7157 -3.84057 3.84057 z M -5.70347 -14.7 a 8.99653 8.99653 0 0 1 -8.99653 8.99653 a 8.99653 8.99653 0 0 1 -8.99653 -8.99653 a 8.99653 8.99653 0 0 1 8.99653 -8.99653 a 8.99653 8.99653 0 0 1 8.99653 8.99653 z M 23.6965 14.7 a 8.99653 8.99653 0 0 1 -8.99653 8.99653 a 8.99653 8.99653 0 0 1 -8.99653 -8.99653 a 8.99653 8.99653 0 0 1 8.99653 -8.99653 a 8.99653 8.99653 0 0 1 8.99653 8.99653 z" id="slice1" transform="rotate (45)"/>
    <path d="M -41.5383 -35 L -41.5383 35 c 0 4.62331 4.62331 6.53835 6.53835 6.53835 L 35 41.5383 c 4.62331 0 6.53835 -4.62331 6.53835 -6.53835 L 41.5383 -35 c 0 -4.62331 -4.62331 -6.53835 -6.53835 -6.53835 L -35 -41.5383 c -4.62331 0 -6.53835 4.62331 -6.53835 6.53835 z M -5.98579 -14.7 a 8.71421 8.71421 0 0 1 -8.71421 8.71421 a 8.71421 8.71421 0 0 1 -8.71421 -8.71421 a 8.71421 8.71421 0 0 1 8.71421 -8.71421 a 8.71421 8.71421 0 0 1 8.71421 8.71421 z M 23.4142 14.7 a 8.71421 8.71421 0 0 1 -8.71421 8.71421 a 8.71421 8.71421 0 0 1 -8.71421 -8.71421 a 8.71421 8.71421 0 0 1 8.71421 -8.71421 a 8.71421 8.71421 0 0 1 8.71421 8.71421 z" id="slice2" transform="rotate (45)"/>
    <path d="M -43.2916 -35 L -43.2916 35 c 0 5.86302 5.86302 8.29156 8.29156 8.29156 L 35 43.2916 c 5.86302 0 8.29156 -5.86302 8.29156 -8.29156 L 43.2916 -35 c 0 -5.86302 -5.86302 -8.29156 -8.29156 -8.29156 L -35 -43.2916 c -5.86302 0 -8.29156 5.86302 -8.29156 8.29156 z M -8.22408 -14.7 a 6.47592 6.47592 0 0 1 -6.47592 6.47592 a 6.47592 6.47592 0 0 1 -6.47592 -6.47592 a 6.47592 6.47592 0 0 1 6.47592 -6.47592 a 6.47592 6.47592 0 0 1 6.47592 6.47592 z M 21.1759 14.7 a 6.47592 6.47592 0 0 1 -6.47592 6.47592 a 6.47592 6.47592 0 0 1 -6.47592 -6.47592 a 6.47592 6.47592 0 0 1 6.47592 -6.47592 a 6.47592 6.47592 0 0 1 6.47592 6.47592 z" id="slice3" transform="rotate (45)"/>
    <path d="M -44.6307 -35 L -44.6307 35 c 0 6.80992 6.80992 9.63068 9.63068 9.63068 L 35 44.6307 c 6.80992 0 9.63068 -6.80992 9.63068 -9.63068 L 44.6307 -35 c 0 -6.80992 -6.80992 -9.63068 -9.63068 -9.63068 L -35 -44.6307 c -6.80992 0 -9.63068 6.80992 -9.63068 9.63068 z" id="slice4" transform="rotate (45)"/>
    <path d="M -45.7121 -35 L -45.7121 35 c 0 7.57463 7.57463 10.7121 10.7121 10.7121 L 35 45.7121 c 7.57463 0 10.7121 -7.57463 10.7121 -10.7121 L 45.7121 -35 c 0 -7.57463 -7.57463 -10.7121 -10.7121 -10.7121 L -35 -45.7121 c -7.57463 0 -10.7121 7.57463 -10.7121 10.7121 z" id="slice5" transform="rotate (45)"/>
    <path d="M -46.6082 -35 L -46.6082 35 c 0 8.20823 8.20823 11.6082 11.6082 11.6082 L 35 46.6082 c 8.20823 0 11.6082 -8.20823 11.6082 -11.6082 L 46.6082 -35 c 0 -8.20823 -8.20823 -11.6082 -11.6082 -11.6082 L -35 -46.6082 c -8.20823 0 -11.6082 8.20823 -11.6082 11.6082 z" id="slice6" transform="rotate (45)"/>
    <path d="M -47.3592 -35 L -47.3592 35 c 0 8.73928 8.73928 12.3592 12.3592 12.3592 L 35 47.3592 c 8.73928 0 12.3592 -8.73928 12.3592 -12.3592 L 47.3592 -35 c 0 -8.73928 -8.73928 -12.3592 -12.3592 -12.3592 L -35 -47.3592 c -8.73928 0 -12.3592 8.73928 -12.3592 12.3592 z" id="slice7" transform="rotate (45)"/>
    <path d="M -47.9904 -35 L -47.9904 35 c 0 9.18559 9.18559 12.9904 12.9904 12.9904 L 35 47.9904 c 9.18559 0 12.9904 -9.18559 12.9904 -12.9904 L 47.9904 -35 c 0 -9.18559 -9.18559 -12.9904 -12.9904 -12.9904 L -35 -47.9904 c -9.18559 0 -12.9904 9.18559 -12.9904 12.9904 z" id="slice8" transform="rotate (45)"/>
    <path d="M -48.5185 -35 L -48.5185 35 c 0 9.55903 9.55903 13.5185 13.5185 13.5185 L 35 48.5185 c 9.55903 0 13.5185 -9.55903 13.5185 -13.5185 L 48.5185 -35 c 0 -9.55903 -9.55903 -13.5185 -13.5185 -13.5185 L -35 -48.5185 c -9.55903 0 -13.5185 9.55903 -13.5185 13.5185 z" id="slice9" transform="rotate (45)"/>
    <path d="M -48.9553 -35 L -48.9553 35 c 0 9.86788 9.86788 13.9553 13.9553 13.9553 L 35 48.9553 c 9.86788 0 13.9553 -9.86788 13.9553 -13.9553 L 48.9553 -35 c 0 -9.86788 -9.86788 -13.9553 -13.9553 -13.9553 L -35 -48.9553 c -9.86788 0 -13.9553 9.86788 -13.9553 13.9553 z" id="slice10" transform="rotate (45)"/>
    <path d="M -49.3091 -35 L -49.3091 35 c 0 10.1181 10.1181 14.3091 14.3091 14.3091 L 35 49.3091 c 10.1181 0 14.3091 -10.1181 14.3091 -14.3091 L 49.3091 -35 c 0 -10.1181 -10.1181 -14.3091 -14.3091 -14.3091 L -35 -49.3091 c -10.1181 0 -14.3091 10.1181 -14.3091 14.3091 z" id="slice11" transform="rotate (45)"/>
    <path d="M -49.586 -35 L -49.586 35 c 0 10.3138 10.3138 14.586 14.586 14.586 L 35 49.586 c 10.3138 0 14.586 -10.3138 14.586 -14.586 L 49.586 -35 c 0 -10.3138 -10.3138 -14.586 -14.586 -14.586 L -35 -49.586 c -10.3138 0 -14.586 10.3138 -14.586 14.586 z" id="slice12" transform="rotate (45)"/>
    <path d="M -49.7902 -35 L -49.7902 35 c 0 10.4583 10.4583 14.7902 14.7902 14.7902 L 35 49.7902 c 10.4583 0 14.7902 -10.4583 14.7902 -14.7902 L 49.7902 -35 c 0 -10.4583 -10.4583 -14.7902 -14.7902 -14.7902 L -35 -49.7902 c -10.4583 0 -14.7902 10.4583 -14.7902 14.7902 z" id="slice13" transform="rotate (45)"/>
    <path d="M -49.9248 -35 L -49.9248 35 c 0 10.5534 10.5534 14.9248 14.9248 14.9248 L 35 49.9248 c 10.5534 0 14.9248 -10.5534 14.9248 -14.9248 L 49.9248 -35 c 0 -10.5534 -10.5534 -14.9248 -14.9248 -14.9248 L -35 -49.9248 c -10.5534 0 -14.9248 10.5534 -14.9248 14.9248 z" id="slice14" transform="rotate (45)"/>
    <path d="M -49.9917 -35 L -49.9917 35 c 0 10.6007 10.6007 14.9917 14.9917 14.9917 L 35 49.9917 c 10.6007 0 14.9917 -10.6007 14.9917 -14.9917 L 49.9917 -35 c 0 -10.6007 -10.6007 -14.9917 -14.9917 -14.9917 L -35 -49.9917 c -10.6007 0 -14.9917 10.6007 -14.9917 14.9917 z" id="slice15" transform="rotate (45)"/>
    <path d="M -50 -35 L -50 35 c 0 10.6066 10.6066 15 15 15 L 35 50 c 10.6066 0 15 -10.6066 15 -15 L 50 -35 c 0 -10.6066 -10.6066 -15 -15 -15 L -35 -50 c -10.6066 0 -15 10.6066 -15 15 z" id="slice16" transform="rotate (45)"/>
    <path d="M -50 -35 L -50 -26.3311 c 1.61555 1.61555 1.61555 4.84665 0 6.4622 L -50 19.8689 c 1.61555 1.61555 1.61555 4.84665 0 6.4622 L -50 35 c 0 10.6066 10.6066 15 15 15 L -26.3311 50 c 1.61555 -1.61555 4.84665 -1.61555 6.4622 0 L 19.8689 50 c 1.61555 -1.61555 4.84665 -1.61555 6.4622 0 L 35 50 c 10.6066 0 15 -10.6066 15 -15 L 50 26.3311 c -1.61555 -1.61555 -1.61555 -4.84665 0 -6.4622 L 50 -35 c 0 -10.6066 -10.6066 -15 -15 -15 L -35 -50 c -10.6066 0 -15 10.6066 -15 15 z" id="slice17" transform="rotate (45)"/>
    <path d="M -50 -35 L -50 -28.2225 c 2.56125 2.56125 2.56125 7.68375 0 10.245 L -50 17.9775 c 2.56125 2.56125 2.56125 7.68375 0 10.245 L -50 35 c 0 10.6066 10.6066 15 15 15 L -28.2225 50 c 2.56125 -2.56125 7.68375 -2.56125 10.245 0 L 17.9775 50 c 2.56125 -2.56125 7.68375 -2.56125 10.245 0 L 35 50 c 10.6066 0 15 -10.6066 15 -15 L 50 28.2225 c -2.56125 -2.56125 -2.56125 -7.68375 0 -10.245 L 50 -35 c 0 -10.6066 -10.6066 -15 -15 -15 L -35 -50 c -10.6066 0 -15 10.6066 -15 15 z" id="slice18" transform="rotate (45)"/>
    <path d="M -50 -35 L -50 -29.4277 c 3.16386 3.16386 3.16386 9.49158 0 12.6554 L -50 16.7723 c 3.16386 3.16386 3.16386 9.49158 0 12.6554 L -50 35 c 0 10.6066 10.6066 15 15 15 L -29.4277 50 c 3.16386 -3.16386 9.49158 -3.16386 12.6554 0 L 16.7723 50 c 3.16386 -3.16386 9.49158 -3.16386 12.6554 0 L 35 50 c 10.6066 0 15 -10.6066 15 -15 L 50 29.4277 c -3.16386 -3.16386 -3.16386 -9.49158 0 -12.6554 L 50 -35 c 0 -10.6066 -10.6066 -15 -15 -15 L -35 -50 c -10.6066 0 -15 10.6066 -15 15 z" id="slice19" transform="rotate (45)"/>
    <path d="M -50 -35 L -50 -30.3 c 3.6 3.6 3.6 10.8 0 14.4 L -50 15.9 c 3.6 3.6 3.6 10.8 0 14.4 L -50 35 c 0 10.6066 10.6066 15 15 15 L -30.3 50 c 3.6 -3.6 10.8 -3.6 14.4 0 L 15.9 50 c 3.6 -3.6 10.8 -3.6 14.4 0 L 35 50 c 10.6066 0 15 -10.6066 15 -15 L 50 30.3 c -3.6 -3.6 -3.6 -10.8 0 -14.4 L 50 -35 c 0 -10.6066 -10.6066 -15 -15 -15 L -35 -50 c -10.6066 0 -15 10.6066 -15 15 z" id="slice20" transform="rotate (45)"/>
    <path d="M -50 -35 L -50 -30.9511 c 3.92556 3.92556 3.92556 11.7767 0 15.7022 L -50 15.2489 c 3.92556 3.92556 3.92556 11.7767 0 15.7022 L -50 35 c 0 10.6066 10.6066 15 15 15 L -30.9511 50 c 3.92556 -3.92556 11.7767 -3.92556 15.7022 0 L 15.2489 50 c 3.92556 -3.92556 11.7767 -3.92556 15.7022 0 L 35 50 c 10.6066 0 15 -10.6066 15 -15 L 50 30.9511 c -3.92556 -3.92556 -3.92556 -11.7767 0 -15.7022 L 50 -35 c 0 -10.6066 -10.6066 -15 -15 -15 L -35 -50 c -10.6066 0 -15 10.6066 -15 15 z" id="slice21" transform="rotate (45)"/>
    <path d="M -50 -35 L -50 -31.4331 c 4.16653 4.16653 4.16653 12.4996 0 16.6661 L -50 14.7669 c 4.16653 4.16653 4.16653 12.4996 0 16.6661 L -50 35 c 0 10.6066 10.6066 15 15 15 L -31.4331 50 c 4.16653 -4.16653 12.4996 -4.16653 16.6661 0 L 14.7669 50 c 4.16653 -4.16653 12.4996 -4.16653 16.6661 0 L 35 50 c 10.6066 0 15 -10.6066 15 -15 L 50 31.4331 c -4.16653 -4.16653 -4.16653 -12.4996 0 -16.6661 L 50 -35 c 0 -10.6066 -10.6066 -15 -15 -15 L -35 -50 c -10.6066 0 -15 10.6066 -15 15 z" id="slice22" transform="rotate (45)"/>
    <path d="M -50 -35 L -50 -31.7741 c 4.33705 4.33705 4.33705 13.0111 0 17.3482 L -50 14.4259 c 4.33705 4.33705 4.33705 13.0111 0 17.3482 L -50 35 c 0 10.6066 10.6066 15 15 15 L -31.7741 50 c 4.33705 -4.33705 13.0111 -4.33705 17.3482 0 L 14.4259 50 c 4.33705 -4.33705 13.0111 -4.33705 17.3482 0 L 35 50 c 10.6066 0 15 -10.6066 15 -15 L 50 31.7741 c -4.33705 -4.33705 -4.33705 -13.0111 0 -17.3482 L 50 -35 c 0 -10.6066 -10.6066 -15 -15 -15 L -35 -50 c -10.6066 0 -15 10.6066 -15 15 z" id="slice23" transform="rotate (45)"/>
    <path d="M -50 -35 L -50 -31.9904 c 4.44522 4.44522 4.44522 13.3357 0 17.7809 L -50 14.2096 c 4.44522 4.44522 4.44522 13.3357 0 17.7809 L -50 35 c 0 10.6066 10.6066 15 15 15 L -31.9904 50 c 4.44522 -4.44522 13.3357 -4.44522 17.7809 0 L 14.2096 50 c 4.44522 -4.44522 13.3357 -4.44522 17.7809 0 L 35 50 c 10.6066 0 15 -10.6066 15 -15 L 50 31.9904 c -4.44522 -4.44522 -4.44522 -13.3357 0 -17.7809 L 50 -35 c 0 -10.6066 -10.6066 -15 -15 -15 L -35 -50 c -10.6066 0 -15 10.6066 -15 15 z" id="slice24" transform="rotate (45)"/>
    <path d="M -50 -35 L -50 -32.0911 c 4.49555 4.49555 4.49555 13.4867 0 17.9822 L -50 14.1089 c 4.49555 4.49555 4.49555 13.4867 0 17.9822 L -50 35 c 0 10.6066 10.6066 15 15 15 L -32.0911 50 c 4.49555 -4.49555 13.4867 -4.49555 17.9822 0 L 14.1089 50 c 4.49555 -4.49555 13.4867 -4.49555 17.9822 0 L 35 50 c 10.6066 0 15 -10.6066 15 -15 L 50 32.0911 c -4.49555 -4.49555 -4.49555 -13.4867 0 -17.9822 L 50 -35 c 0 -10.6066 -10.6066 -15 -15 -15 L -35 -50 c -10.6066 0 -15 10.6066 -15 15 z" id="slice25" transform="rotate (45)"/>
    <path d="M -50 -35 L -50 -32.08 c 4.48999 4.48999 4.48999 13.47 0 17.96 L -50 14.12 c 4.48999 4.48999 4.48999 13.47 0 17.96 L -50 35 c 0 10.6066 10.6066 15 15 15 L -32.08 50 c 4.48999 -4.48999 13.47 -4.48999 17.96 0 L 14.12 50 c 4.48999 -4.48999 13.47 -4.48999 17.96 0 L 35 50 c 10.6066 0 15 -10.6066 15 -15 L 50 32.08 c -4.48999 -4.48999 -4.48999 -13.47 0 -17.96 L 50 -35 c 0 -10.6066 -10.6066 -15 -15 -15 L -35 -50 c -10.6066 0 -15 10.6066 -15 15 z" id="slice26" transform="rotate (45)"/>
    <path d="M -50 -35 L -50 -31.9566 c 4.42832 4.42832 4.42832 13.285 0 17.7133 L -50 14.2434 c 4.42832 4.42832 4.42832 13.285 0 17.7133 L -50 35 c 0 10.6066 10.6066 15 15 15 L -31.9566 50 c 4.42832 -4.42832 13.285 -4.42832 17.7133 0 L 14.2434 50 c 4.42832 -4.42832 13.285 -4.42832 17.7133 0 L 35 50 c 10.6066 0 15 -10.6066 15 -15 L 50 31.9566 c -4.42832 -4.42832 -4.42832 -13.285 0 -17.7133 L 50 -35 c 0 -10.6066 -10.6066 -15 -15 -15 L -35 -50 c -10.6066 0 -15 10.6066 -15 15 z" id="slice27" transform="rotate (45)"/>
    <path d="M -50 -35 L -50 -31.7163 c 4.30813 4.30813 4.30813 12.9244 0 17.2325 L -50 14.4837 c 4.30813 4.30813 4.30813 12.9244 0 17.2325 L -50 35 c 0 10.6066 10.6066 15 15 15 L -31.7163 50 c 4.30813 -4.30813 12.9244 -4.30813 17.2325 0 L 14.4837 50 c 4.30813 -4.30813 12.9244 -4.30813 17.2325 0 L 35 50 c 10.6066 0 15 -10.6066 15 -15 L 50 31.7163 c -4.30813 -4.30813 -4.30813 -12.9244 0 -17.2325 L 50 -35 c 0 -10.6066 -10.6066 -15 -15 -15 L -35 -50 c -10.6066 0 -15 10.6066 -15 15 z" id="slice28" transform="rotate (45)"/>
    <path d="M -50 -35 L -50 -31.3486 c 4.12432 4.12432 4.12432 12.373 0 16.4973 L -50 14.8514 c 4.12432 4.12432 4.12432 12.373 0 16.4973 L -50 35 c 0 10.6066 10.6066 15 15 15 L -31.3486 50 c 4.12432 -4.12432 12.373 -4.12432 16.4973 0 L 14.8514 50 c 4.12432 -4.12432 12.373 -4.12432 16.4973 0 L 35 50 c 10.6066 0 15 -10.6066 15 -15 L 50 31.3486 c -4.12432 -4.12432 -4.12432 -12.373 0 -16.4973 L 50 -35 c 0 -10.6066 -10.6066 -15 -15 -15 L -35 -50 c -10.6066 0 -15 10.6066 -15 15 z" id="slice29" transform="rotate (45)"/>
    <path d="M -50 -35 L -50 -30.8356 c 3.86782 3.86782 3.86782 11.6034 0 15.4713 L -50 15.3644 c 3.86782 3.86782 3.86782 11.6034 0 15.4713 L -50 35 c 0 10.6066 10.6066 15 15 15 L -30.8356 50 c 3.86782 -3.86782 11.6034 -3.86782 15.4713 0 L 15.3644 50 c 3.86782 -3.86782 11.6034 -3.86782 15.4713 0 L 35 50 c 10.6066 0 15 -10.6066 15 -15 L 50 30.8356 c -3.86782 -3.86782 -3.86782 -11.6034 0 -15.4713 L 50 -35 c 0 -10.6066 -10.6066 -15 -15 -15 L -35 -50 c -10.6066 0 -15 10.6066 -15 15 z" id="slice30" transform="rotate (45)"/>
    <path d="M -50 -35 L -50 -30.1456 c 3.52278 3.52278 3.52278 10.5683 0 14.0911 L -50 16.0544 c 3.52278 3.52278 3.52278 10.5683 0 14.0911 L -50 35 c 0 10.6066 10.6066 15 15 15 L -30.1456 50 c 3.52278 -3.52278 10.5683 -3.52278 14.0911 0 L 16.0544 50 c 3.52278 -3.52278 10.5683 -3.52278 14.0911 0 L 35 50 c 10.6066 0 15 -10.6066 15 -15 L 50 30.1456 c -3.52278 -3.52278 -3.52278 -10.5683 0 -14.0911 L 50 -35 c 0 -10.6066 -10.6066 -15 -15 -15 L -35 -50 c -10.6066 0 -15 10.6066 -15 15 z" id="slice31" transform="rotate (45)"/>
    <path d="M -50 -35 L -50 -29.2188 c 3.05941 3.05941 3.05941 9.17824 0 12.2376 L -50 16.9812 c 3.05941 3.05941 3.05941 9.17824 0 12.2376 L -50 35 c 0 10.6066 10.6066 15 15 15 L -29.2188 50 c 3.05941 -3.05941 9.17824 -3.05941 12.2376 0 L 16.9812 50 c 3.05941 -3.05941 9.17824 -3.05941 12.2376 0 L 35 50 c 10.6066 0 15 -10.6066 15 -15 L 50 29.2188 c -3.05941 -3.05941 -3.05941 -9.17824 0 -12.2376 L 50 -35 c 0 -10.6066 -10.6066 -15 -15 -15 L -35 -50 c -10.6066 0 -15 10.6066 -15 15 z" id="slice32" transform="rotate (45)"/>
    <path d="M -50 -35 L -50 -27.9208 c 2.41039 2.41039 2.41039 7.23118 0 9.64158 L -50 18.2792 c 2.41039 2.41039 2.41039 7.23118 0 9.64158 L -50 35 c 0 10.6066 10.6066 15 15 15 L -27.9208 50 c 2.41039 -2.41039 7.23118 -2.41039 9.64158 0 L 18.2792 50 c 2.41039 -2.41039 7.23118 -2.41039 9.64158 0 L 35 50 c 10.6066 0 15 -10.6066 15 -15 L 50 27.9208 c -2.41039 -2.41039 -2.41039 -7.23118 0 -9.64158 L 50 -35 c 0 -10.6066 -10.6066 -15 -15 -15 L -35 -50 c -10.6066 0 -15 10.6066 -15 15 z" id="slice33" transform="rotate (45)"/>
    <path d="M -50 -35 L -50 -25.7533 c 1.32665 1.32665 1.32665 3.97995 0 5.3066 L -50 20.4467 c 1.32665 1.32665 1.32665 3.97995 0 5.3066 L -50 35 c 0 10.6066 10.6066 15 15 15 L -25.7533 50 c 1.32665 -1.32665 3.97995 -1.32665 5.3066 0 L 20.4467 50 c 1.32665 -1.32665 3.97995 -1.32665 5.3066 0 L 35 50 c 10.6066 0 15 -10.6066 15 -15 L 50 25.7533 c -1.32665 -1.32665 -1.32665 -3.97995 0 -5.3066 L 50 -35 c 0 -10.6066 -10.6066 -15 -15 -15 L -35 -50 c -10.6066 0 -15 10.6066 -15 15 z" id="slice34" transform="rotate (45)"/>
    <path d="M -50 -35 L -50 35 c 0 10.6066 10.6066 15 15 15 L -26.058 50 c 1.47902 -1.47902 4.43706 -1.47902 5.91608 0 L 20.142 50 c 1.47902 -1.47902 4.43706 -1.47902 5.91608 0 L 35 50 c 10.6066 0 15 -10.6066 15 -15 L 50 2.95804 c -1.47902 -1.47902 -1.47902 -4.43706 0 -5.91608 L 50 -35 c 0 -10.6066 -10.6066 -15 -15 -15 L 2.95804 -50 c -1.47902 1.47902 -4.43706 1.47902 -5.91608 0 L -35 -50 c -10.6066 0 -15 10.6066 -15 15 z" id="slice35" transform="rotate (45)"/>
    <path d="M -50 -35 L -50 35 c 0 10.6066 10.6066 15 15 15 L -28.0749 50 c 2.48747 -2.48747 7.46241 -2.48747 9.94987 0 L 18.1251 50 c 2.48747 -2.48747 7.46241 -2.48747 9.94987 0 L 35 50 c 10.6066 0 15 -10.6066 15 -15 L 50 4.97494 c -2.48747 -2.48747 -2.48747 -7.46241 0 -9.94987 L 50 -35 c 0 -10.6066 -10.6066 -15 -15 -15 L 4.97494 -50 c -2.48747 2.48747 -7.46241 2.48747 -9.94987 0 L -35 -50 c -10.6066 0 -15 10.6066 -15 15 z" id="slice36" transform="rotate (45)"/>
    <path d="M -50 -35 L -50 35 c 0 10.6066 10.6066 15 15 15 L -29.3249 50 c 3.11247 -3.11247 9.33742 -3.11247 12.4499 0 L 16.8751 50 c 3.11247 -3.11247 9.33742 -3.11247 12.4499 0 L 35 50 c 10.6066 0 15 -10.6066 15 -15 L 50 6.22495 c -3.11247 -3.11247 -3.11247 -9.33742 0 -12.4499 L 50 -35 c 0 -10.6066 -10.6066 -15 -15 -15 L 6.22495 -50 c -3.11247 3.11247 -9.33742 3.11247 -12.4499 0 L -35 -50 c -10.6066 0 -15 10.6066 -15 15 z" id="slice37" transform="rotate (45)"/>
    <path d="M -50 -35 L -50 35 c 0 10.6066 10.6066 15 15 15 L -30.2239 50 c 3.56195 -3.56195 10.6859 -3.56195 14.2478 0 L 15.9761 50 c 3.56195 -3.56195 10.6859 -3.56195 14.2478 0 L 35 50 c 10.6066 0 15 -10.6066 15 -15 L 50 7.1239 c -3.56195 -3.56195 -3.56195 -10.6859 0 -14.2478 L 50 -35 c 0 -10.6066 -10.6066 -15 -15 -15 L 7.1239 -50 c -3.56195 3.56195 -10.6859 3.56195 -14.2478 0 L -35 -50 c -10.6066 0 -15 10.6066 -15 15 z" id="slice38" transform="rotate (45)"/>
    <path d="M -50 -35 L -50 35 c 0 10.6066 10.6066 15 15 15 L -30.8942 50 c 3.89711 -3.89711 11.6913 -3.89711 15.5885 0 L 15.3058 50 c 3.89711 -3.89711 11.6913 -3.89711 15.5885 0 L 35 50 c 10.6066 0 15 -10.6066 15 -15 L 50 7.79423 c -3.89711 -3.89711 -3.89711 -11.6913 0 -15.5885 L 50 -35 c 0 -10.6066 -10.6066 -15 -15 -15 L 7.79423 -50 c -3.89711 3.89711 -11.6913 3.89711 -15.5885 0 L -35 -50 c -10.6066 0 -15 10.6066 -15 15 z" id="slice39" transform="rotate (45)"/>
    <path d="M -50 -35 L -50 35 c 0 10.6066 10.6066 15 15 15 L -31.3916 50 c 4.14578 -4.14578 12.4373 -4.14578 16.5831 0 L 14.8084 50 c 4.14578 -4.14578 12.4373 -4.14578 16.5831 0 L 35 50 c 10.6066 0 15 -10.6066 15 -15 L 50 8.29156 c -4.14578 -4.14578 -4.14578 -12.4373 0 -16.5831 L 50 -35 c 0 -10.6066 -10.6066 -15 -15 -15 L 8.29156 -50 c -4.14578 4.14578 -12.4373 4.14578 -16.5831 0 L -35 -50 c -10.6066 0 -15 10.6066 -15 15 z" id="slice40" transform="rotate (45)"/>
    <path d="M -50 -35 L -50 35 c 0 10.6066 10.6066 15 15 15 L -31.7458 50 c 4.3229 -4.3229 12.9687 -4.3229 17.2916 0 L 14.4542 50 c 4.3229 -4.3229 12.9687 -4.3229 17.2916 0 L 35 50 c 10.6066 0 15 -10.6066 15 -15 L 50 8.64581 c -4.3229 -4.3229 -4.3229 -12.9687 0 -17.2916 L 50 -35 c 0 -10.6066 -10.6066 -15 -15 -15 L 8.64581 -50 c -4.3229 4.3229 -12.9687 4.3229 -17.2916 0 L -35 -50 c -10.6066 0 -15 10.6066 -15 15 z" id="slice41" transform="rotate (45)"/>
    <path d="M -50 -35 L -50 35 c 0 10.6066 10.6066 15 15 15 L -31.9741 50 c 4.43706 -4.43706 13.3112 -4.43706 17.7482 0 L 14.2259 50 c 4.43706 -4.43706 13.3112 -4.43706 17.7482 0 L 35 50 c 10.6066 0 15 -10.6066 15 -15 L 50 8.87412 c -4.43706 -4.43706 -4.43706 -13.3112 0 -17.7482 L 50 -35 c 0 -10.6066 -10.6066 -15 -15 -15 L 8.87412 -50 c -4.43706 4.43706 -13.3112 4.43706 -17.7482 0 L -35 -50 c -10.6066 0 -15 10.6066 -15 15 z" id="slice42" transform="rotate (45)"/>
    <path d="M -50 -35 L -50 35 c 0 10.6066 10.6066 15 15 15 L -32.0861 50 c 4.49305 -4.49305 13.4792 -4.49305 17.9722 0 L 14.1139 50 c 4.49305 -4.49305 13.4792 -4.49305 17.9722 0 L 35 50 c 10.6066 0 15 -10.6066 15 -15 L 50 8.9861 c -4.49305 -4.49305 -4.49305 -13.4792 0 -17.9722 L 50 -35 c 0 -10.6066 -10.6066 -15 -15 -15 L 8.9861 -50 c -4.49305 4.49305 -13.4792 4.49305 -17.9722 0 L -35 -50 c -10.6066 0 -15 10.6066 -15 15 z" id="slice43" transform="rotate (45)"/>
    <path d="M -50 -35 L -50 -25.7533 c 1.32665 1.32665 1.32665 3.97995 0 5.3066 L -50 20.4467 c 1.32665 1.32665 1.32665 3.97995 0 5.3066 L -50 35 c 0 10.6066 10.6066 15 15 15 L -25.7533 50 c 1.32665 -1.32665 3.97995 -1.32665 5.3066 0 L 20.4467 50 c 1.32665 -1.32665 3.97995 -1.32665 5.3066 0 L 35 50 c 10.6066 0 15 -10.6066 15 -15 L 50 -20.4467 c -1.32665 -1.32665 -1.32665 -3.97995 0 -5.3066 L 50 -35 c 0 -10.6066 -10.6066 -15 -15 -15 L -35 -50 c -10.6066 0 -15 10.6066 -15 15 z" id="slice44" transform="rotate (45)"/>
    <path d="M -50 -35 L -50 -27.9208 c 2.41039 2.41039 2.41039 7.23118 0 9.64158 L -50 18.2792 c 2.41039 2.41039 2.41039 7.23118 0 9.64158 L -50 35 c 0 10.6066 10.6066 15 15 15 L -27.9208 50 c 2.41039 -2.41039 7.23118 -2.41039 9.64158 0 L 18.2792 50 c 2.41039 -2.41039 7.23118 -2.41039 9.64158 0 L 35 50 c 10.6066 0 15 -10.6066 15 -15 L 50 -18.2792 c -2.41039 -2.41039 -2.41039 -7.23118 0 -9.64158 L 50 -35 c 0 -10.6066 -10.6066 -15 -15 -15 L -35 -50 c -10.6066 0 -15 10.6066 -15 15 z" id="slice45" transform="rotate (45)"/>
    <path d="M -50 -35 L -50 -29.2188 c 3.05941 3.05941 3.05941 9.17824 0 12.2376 L -50 16.9812 c 3.05941 3.05941 3.05941 9.17824 0 12.2376 L -50 35 c 0 10.6066 10.6066 15 15 15 L -29.2188 50 c 3.05941 -3.05941 9.17824 -3.05941 12.2376 0 L 16.9812 50 c 3.05941 -3.05941 9.17824 -3.05941 12.2376 0 L 35 50 c 10.6066 0 15 -10.6066 15 -15 L 50 -16.9812 c -3.05941 -3.05941 -3.05941 -9.17824 0 -12.2376 L 50 -35 c 0 -10.6066 -10.6066 -15 -15 -15 L -35 -50 c -10.6066 0 -15 10.6066 -15 15 z" id="slice46" transform="rotate (45)"/>
    <path d="M -50 -35 L -50 -30.1456 c 3.52278 3.52278 3.52278 10.5683 0 14.0911 L -50 16.0544 c 3.52278 3.52278 3.52278 10.5683 0 14.0911 L -50 35 c 0 10.6066 10.6066 15 15 15 L -30.1456 50 c 3.52278 -3.52278 10.5683 -3.52278 14.0911 0 L 16.0544 50 c 3.52278 -3.52278 10.5683 -3.52278 14.0911 0 L 35 50 c 10.6066 0 15 -10.6066 15 -15 L 50 -16.0544 c -3.52278 -3.52278 -3.52278 -10.5683 0 -14.0911 L 50 -35 c 0 -10.6066 -10.6066 -15 -15 -15 L -35 -50 c -10.6066 0 -15 10.6066 -15 15 z" id="slice47" transform="rotate (45)"/>
    <path d="M -50 -35 L -50 -30.8356 c 3.86782 3.86782 3.86782 11.6034 0 15.4713 L -50 15.3644 c 3.86782 3.86782 3.86782 11.6034 0 15.4713 L -50 35 c 0 10.6066 10.6066 15 15 15 L -30.8356 50 c 3.86782 -3.86782 11.6034 -3.86782 15.4713 0 L 15.3644 50 c 3.86782 -3.86782 11.6034 -3.86782 15.4713 0 L 35 50 c 10.6066 0 15 -10.6066 15 -15 L 50 -15.3644 c -3.86782 -3.86782 -3.86782 -11.6034 0 -15.4713 L 50 -35 c 0 -10.6066 -10.6066 -15 -15 -15 L -35 -50 c -10.6066 0 -15 10.6066 -15 15 z" id="slice48" transform="rotate (45)"/>
    <path d="M -50 -35 L -50 -31.3486 c 4.12432 4.12432 4.12432 12.373 0 16.4973 L -50 14.8514 c 4.12432 4.12432 4.12432 12.373 0 16.4973 L -50 35 c 0 10.6066 10.6066 15 15 15 L -31.3486 50 c 4.12432 -4.12432 12.373 -4.12432 16.4973 0 L 14.8514 50 c 4.12432 -4.12432 12.373 -4.12432 16.4973 0 L 35 50 c 10.6066 0 15 -10.6066 15 -15 L 50 -14.8514 c -4.12432 -4.12432 -4.12432 -12.373 0 -16.4973 L 50 -35 c 0 -10.6066 -10.6066 -15 -15 -15 L -35 -50 c -10.6066 0 -15 10.6066 -15 15 z" id="slice49" transform="rotate (45)"/>
    <path d="M -50 -35 L -50 -31.7163 c 4.30813 4.30813 4.30813 12.9244 0 17.2325 L -50 14.4837 c 4.30813 4.30813 4.30813 12.9244 0 17.2325 L -50 35 c 0 10.6066 10.6066 15 15 15 L -31.7163 50 c 4.30813 -4.30813 12.9244 -4.30813 17.2325 0 L 14.4837 50 c 4.30813 -4.30813 12.9244 -4.30813 17.2325 0 L 35 50 c 10.6066 0 15 -10.6066 15 -15 L 50 -14.4837 c -4.30813 -4.30813 -4.30813 -12.9244 0 -17.2325 L 50 -35 c 0 -10.6066 -10.6066 -15 -15 -15 L -35 -50 c -10.6066 0 -15 10.6066 -15 15 z" id="slice50" transform="rotate (45)"/>
    <path d="M -50 -35 L -50 -31.9566 c 4.42832 4.42832 4.42832 13.285 0 17.7133 L -50 14.2434 c 4.42832 4.42832 4.42832 13.285 0 17.7133 L -50 35 c 0 10.6066 10.6066 15 15 15 L -31.9566 50 c 4.42832 -4.42832 13.285 -4.42832 17.7133 0 L 14.2434 50 c 4.42832 -4.42832 13.285 -4.42832 17.7133 0 L 35 50 c 10.6066 0 15 -10.6066 15 -15 L 50 -14.2434 c -4.42832 -4.42832 -4.42832 -13.285 0 -17.7133 L 50 -35 c 0 -10.6066 -10.6066 -15 -15 -15 L -35 -50 c -10.6066 0 -15 10.6066 -15 15 z" id="slice51" transform="rotate (45)"/>
    <path d="M -50 -35 L -50 -32.08 c 4.48999 4.48999 4.48999 13.47 0 17.96 L -50 14.12 c 4.48999 4.48999 4.48999 13.47 0 17.96 L -50 35 c 0 10.6066 10.6066 15 15 15 L -32.08 50 c 4.48999 -4.48999 13.47 -4.48999 17.96 0 L 14.12 50 c 4.48999 -4.48999 13.47 -4.48999 17.96 0 L 35 50 c 10.6066 0 15 -10.6066 15 -15 L 50 -14.12 c -4.48999 -4.48999 -4.48999 -13.47 0 -17.96 L 50 -35 c 0 -10.6066 -10.6066 -15 -15 -15 L -35 -50 c -10.6066 0 -15 10.6066 -15 15 z" id="slice52" transform="rotate (45)"/>
    <path d="M -50 -35 L -50 -32.0911 c 4.49555 4.49555 4.49555 13.4867 0 17.9822 L -50 14.1089 c 4.49555 4.49555 4.49555 13.4867 0 17.9822 L -50 35 c 0 10.6066 10.6066 15 15 15 L -32.0911 50 c 4.49555 -4.49555 13.4867 -4.49555 17.9822 0 L 14.1089 50 c 4.49555 -4.49555 13.4867 -4.49555 17.9822 0 L 35 50 c 10.6066 0 15 -10.6066 15 -15 L 50 -14.1089 c -4.49555 -4.49555 -4.49555 -13.4867 0 -17.9822 L 50 -35 c 0 -10.6066 -10.6066 -15 -15 -15 L -35 -50 c -10.6066 0 -15 10.6066 -15 15 z" id="slice53" transform="rotate (45)"/>
    <path d="M -50 -35 L -50 -31.9904 c 4.44522 4.44522 4.44522 13.3357 0 17.7809 L -50 14.2096 c 4.44522 4.44522 4.44522 13.3357 0 17.7809 L -50 35 c 0 10.6066 10.6066 15 15 15 L -31.9904 50 c 4.44522 -4.44522 13.3357 -4.44522 17.7809 0 L 14.2096 50 c 4.44522 -4.44522 13.3357 -4.44522 17.7809 0 L 35 50 c 10.6066 0 15 -10.6066 15 -15 L 50 -14.2096 c -4.44522 -4.44522 -4.44522 -13.3357 0 -17.7809 L 50 -35 c 0 -10.6066 -10.6066 -15 -15 -15 L -35 -50 c -10.6066 0 -15 10.6066 -15 15 z" id="slice54" transform="rotate (45)"/>
    <path d="M -50 -35 L -50 -31.7741 c 4.33705 4.33705 4.33705 13.0111 0 17.3482 L -50 14.4259 c 4.33705 4.33705 4.33705 13.0111 0 17.3482 L -50 35 c 0 10.6066 10.6066 15 15 15 L -31.7741 50 c 4.33705 -4.33705 13.0111 -4.33705 17.3482 0 L 14.4259 50 c 4.33705 -4.33705 13.0111 -4.33705 17.3482 0 L 35 50 c 10.6066 0 15 -10.6066 15 -15 L 50 -14.4259 c -4.33705 -4.33705 -4.33705 -13.0111 0 -17.3482 L 50 -35 c 0 -10.6066 -10.6066 -15 -15 -15 L -35 -50 c -10.6066 0 -15 10.6066 -15 15 z" id="slice55" transform="rotate (45)"/>
    <path d="M -50 -35 L -50 -31.4331 c 4.16653 4.16653 4.16653 12.4996 0 16.6661 L -50 14.7669 c 4.16653 4.16653 4.16653 12.4996 0 16.6661 L -50 35 c 0 10.6066 10.6066 15 15 15 L -31.4331 50 c 4.16653 -4.16653 12.4996 -4.16653 16.6661 0 L 14.7669 50 c 4.16653 -4.16653 12.4996 -4.16653 16.6661 0 L 35 50 c 10.6066 0 15 -10.6066 15 -15 L 50 -14.7669 c -4.16653 -4.16653 -4.16653 -12.4996 0 -16.6661 L 50 -35 c 0 -10.6066 -10.6066 -15 -15 -15 L -35 -50 c -10.6066 0 -15 10.6066 -15 15 z" id="slice56" transform="rotate (45)"/>
    <path d="M -50 -35 L -50 -30.9511 c 3.92556 3.92556 3.92556 11.7767 0 15.7022 L -50 15.2489 c 3.92556 3.92556 3.92556 11.7767 0 15.7022 L -50 35 c 0 10.6066 10.6066 15 15 15 L -30.9511 50 c 3.92556 -3.92556 11.7767 -3.92556 15.7022 0 L 15.2489 50 c 3.92556 -3.92556 11.7767 -3.92556 15.7022 0 L 35 50 c 10.6066 0 15 -10.6066 15 -15 L 50 -15.2489 c -3.92556 -3.92556 -3.92556 -11.7767 0 -15.7022 L 50 -35 c 0 -10.6066 -10.6066 -15 -15 -15 L -35 -50 c -10.6066 0 -15 10.6066 -15 15 z" id="slice57" transform="rotate (45)"/>
    <path d="M -50 -35 L -50 -30.3 c 3.6 3.6 3.6 10.8 0 14.4 L -50 15.9 c 3.6 3.6 3.6 10.8 0 14.4 L -50 35 c 0 10.6066 10.6066 15 15 15 L -30.3 50 c 3.6 -3.6 10.8 -3.6 14.4 0 L 15.9 50 c 3.6 -3.6 10.8 -3.6 14.4 0 L 35 50 c 10.6066 0 15 -10.6066 15 -15 L 50 -15.9 c -3.6 -3.6 -3.6 -10.8 0 -14.4 L 50 -35 c 0 -10.6066 -10.6066 -15 -15 -15 L -35 -50 c -10.6066 0 -15 10.6066 -15 15 z" id="slice58" transform="rotate (45)"/>
    <path d="M -50 -35 L -50 -29.4277 c 3.16386 3.16386 3.16386 9.49158 0 12.6554 L -50 16.7723 c 3.16386 3.16386 3.16386 9.49158 0 12.6554 L -50 35 c 0 10.6066 10.6066 15 15 15 L -29.4277 50 c 3.16386 -3.16386 9.49158 -3.16386 12.6554 0 L 16.7723 50 c 3.16386 -3.16386 9.49158 -3.16386 12.6554 0 L 35 50 c 10.6066 0 15 -10.6066 15 -15 L 50 -16.7723 c -3.16386 -3.16386 -3.16386 -9.49158 0 -12.6554 L 50 -35 c 0 -10.6066 -10.6066 -15 -15 -15 L -35 -50 c -10.6066 0 -15 10.6066 -15 15 z" id="slice59" transform="rotate (45)"/>
    <path d="M -50 -35 L -50 -28.2225 c 2.56125 2.56125 2.56125 7.68375 0 10.245 L -50 17.9775 c 2.56125 2.56125 2.56125 7.68375 0 10.245 L -50 35 c 0 10.6066 10.6066 15 15 15 L -28.2225 50 c 2.56125 -2.56125 7.68375 -2.56125 10.245 0 L 17.9775 50 c 2.56125 -2.56125 7.68375 -2.56125 10.245 0 L 35 50 c 10.6066 0 15 -10.6066 15 -15 L 50 -17.9775 c -2.56125 -2.56125 -2.56125 -7.68375 0 -10.245 L 50 -35 c 0 -10.6066 -10.6066 -15 -15 -15 L -35 -50 c -10.6066 0 -15 10.6066 -15 15 z" id="slice60" transform="rotate (45)"/>
    <path d="M -50 -35 L -50 -26.3311 c 1.61555 1.61555 1.61555 4.84665 0 6.4622 L -50 19.8689 c 1.61555 1.61555 1.61555 4.84665 0 6.4622 L -50 35 c 0 10.6066 10.6066 15 15 15 L -26.3311 50 c 1.61555 -1.61555 4.84665 -1.61555 6.4622 0 L 19.8689 50 c 1.61555 -1.61555 4.84665 -1.61555 6.4622 0 L 35 50 c 10.6066 0 15 -10.6066 15 -15 L 50 -19.8689 c -1.61555 -1.61555 -1.61555 -4.84665 0 -6.4622 L 50 -35 c 0 -10.6066 -10.6066 -15 -15 -15 L -35 -50 c -10.6066 0 -15 10.6066 -15 15 z" id="slice61" transform="rotate (45)"/>
    <path d="M -43.2916 -35 L -43.2916 35 c 0 5.86302 5.86302 8.29156 8.29156 8.29156 L 35 43.2916 c 5.86302 0 8.29156 -5.86302 8.29156 -8.29156 L 43.2916 -35 c 0 -5.86302 -5.86302 -8.29156 -8.29156 -8.29156 L -35 -43.2916 c -5.86302 0 -8.29156 5.86302 -8.29156 8.29156 z M -16.6241 -23.1 a 6.47592 6.47592 0 0 1 -6.47592 6.47592 a 6.47592 6.47592 0 0 1 -6.47592 -6.47592 a 6.47592 6.47592 0 0 1 6.47592 -6.47592 a 6.47592 6.47592 0 0 1 6.47592 6.47592 z M 29.5759 -23.1 a 6.47592 6.47592 0 0 1 -6.47592 6.47592 a 6.47592 6.47592 0 0 1 -6.47592 -6.47592 a 6.47592 6.47592 0 0 1 6.47592 -6.47592 a 6.47592 6.47592 0 0 1 6.47592 6.47592 z M 6.47592 0 a 6.47592 6.47592 0 0 1 -6.47592 6.47592 a 6.47592 6.47592 0 0 1 -6.47592 -6.47592 a 6.47592 6.47592 0 0 1 6.47592 -6.47592 a 6.47592 6.47592 0 0 1 6.47592 6.47592 z M -16.6241 23.1 a 6.47592 6.47592 0 0 1 -6.47592 6.47592 a 6.47592 6.47592 0 0 1 -6.47592 -6.47592 a 6.47592 6.47592 0 0 1 6.47592 -6.47592 a 6.47592 6.47592 0 0 1 6.47592 6.47592 z M 29.5759 23.1 a 6.47592 6.47592 0 0 1 -6.47592 6.47592 a 6.47592 6.47592 0 0 1 -6.47592 -6.47592 a 6.47592 6.47592 0 0 1 6.47592 -6.47592 a 6.47592 6.47592 0 0 1 6.47592 6.47592 z" id="slice62" transform="rotate (45)"/>
    <path d="M -41.5383 -35 L -41.5383 35 c 0 4.62331 4.62331 6.53835 6.53835 6.53835 L 35 41.5383 c 4.62331 0 6.53835 -4.62331 6.53835 -6.53835 L 41.5383 -35 c 0 -4.62331 -4.62331 -6.53835 -6.53835 -6.53835 L -35 -41.5383 c -4.62331 0 -6.53835 4.62331 -6.53835 6.53835 z M -14.3858 -23.1 a 8.71421 8.71421 0 0 1 -8.71421 8.71421 a 8.71421 8.71421 0 0 1 -8.71421 -8.71421 a 8.71421 8.71421 0 0 1 8.71421 -8.71421 a 8.71421 8.71421 0 0 1 8.71421 8.71421 z M 31.8142 -23.1 a 8.71421 8.71421 0 0 1 -8.71421 8.71421 a 8.71421 8.71421 0 0 1 -8.71421 -8.71421 a 8.71421 8.71421 0 0 1 8.71421 -8.71421 a 8.71421 8.71421 0 0 1 8.71421 8.71421 z M 8.71421 0 a 8.71421 8.71421 0 0 1 -8.71421 8.71421 a 8.71421 8.71421 0 0 1 -8.71421 -8.71421 a 8.71421 8.71421 0 0 1 8.71421 -8.71421 a 8.71421 8.71421 0 0 1 8.71421 8.71421 z M -14.3858 23.1 a 8.71421 8.71421 0 0 1 -8.71421 8.71421 a 8.71421 8.71421 0 0 1 -8.71421 -8.71421 a 8.71421 8.71421 0 0 1 8.71421 -8.71421 a 8.71421 8.71421 0 0 1 8.71421 8.71421 z M 31.8142 23.1 a 8.71421 8.71421 0 0 1 -8.71421 8.71421 a 8.71421 8.71421 0 0 1 -8.71421 -8.71421 a 8.71421 8.71421 0 0 1 8.71421 -8.71421 a 8.71421 8.71421 0 0 1 8.71421 8.71421 z" id="slice63" transform="rotate (45)"/>
    <path d="M -38.8406 -35 L -38.8406 35 c 0 2.7157 2.7157 3.84057 3.84057 3.84057 L 35 38.8406 c 2.7157 0 3.84057 -2.7157 3.84057 -3.84057 L 38.8406 -35 c 0 -2.7157 -2.7157 -3.84057 -3.84057 -3.84057 L -35 -38.8406 c -2.7157 0 -3.84057 2.7157 -3.84057 3.84057 z M -14.1035 -23.1 a 8.99653 8.99653 0 0 1 -8.99653 8.99653 a 8.99653 8.99653 0 0 1 -8.99653 -8.99653 a 8.99653 8.99653 0 0 1 8.99653 -8.99653 a 8.99653 8.99653 0 0 1 8.99653 8.99653 z M 32.0965 -23.1 a 8.99653 8.99653 0 0 1 -8.99653 8.99653 a 8.99653 8.99653 0 0 1 -8.99653 -8.99653 a 8.99653 8.99653 0 0 1 8.99653 -8.99653 a 8.99653 8.99653 0 0 1 8.99653 8.99653 z M 8.99653 0 a 8.99653 8.99653 0 0 1 -8.99653 8.99653 a 8.99653 8.99653 0 0 1 -8.99653 -8.99653 a 8.99653 8.99653 0 0 1 8.99653 -8.99653 a 8.99653 8.99653 0 0 1 8.99653 8.99653 z M -14.1035 23.1 a 8.99653 8.99653 0 0 1 -8.99653 8.99653 a 8.99653 8.99653 0 0 1 -8.99653 -8.99653 a 8.99653 8.99653 0 0 1 8.99653 -8.99653 a 8.99653 8.99653 0 0 1 8.99653 8.99653 z M 32.0965 23.1 a 8.99653 8.99653 0 0 1 -8.99653 8.99653 a 8.99653 8.99653 0 0 1 -8.99653 -8.99653 a 8.99653 8.99653 0 0 1 8.99653 -8.99653 a 8.99653 8.99653 0 0 1 8.99653 8.99653 z" id="slice64" transform="rotate (45)"/>
  </defs>
  <g class="rotate_horiz" id="object3D">
    <g class="object3D" transform="translate (100 100) scale (1 0.5)">
      <g id="layer1" transform="translate (0 85.7365)">
        <use class="rotate_vert" xlink:href="#slice1"/>
      </g>
      <g id="layer2" transform="translate (0 84.0045)">
        <use class="rotate_vert" xlink:href="#slice2"/>
      </g>
      <g id="layer3" transform="translate (0 82.2724)">
        <use class="rotate_vert" xlink:href="#slice3"/>
      </g>
      <g id="layer4" transform="translate (0 80.5404)">
        <use class="rotate_vert" xlink:href="#slice4"/>
      </g>
      <g id="layer5" transform="translate (0 78.8083)">
        <use class="rotate_vert" xlink:href="#slice5"/>
      </g>
      <g id="layer6" transform="translate (0 77.0763)">
        <use class="rotate_vert" xlink:href="#slice6"/>
      </g>
      <g id="layer7" transform="translate (0 75.3442)">
        <use class="rotate_vert" xlink:href="#slice7"/>
      </g>
      <g id="layer8" transform="translate (0 73.6122)">
        <use class="rotate_vert" xlink:href="#slice8"/>
      </g>
      <g id="layer9" transform="translate (0 71.8801)">
        <use class="rotate_vert" xlink:href="#slice9"/>
      </g>
      <g id="layer10" transform="translate (0 70.1481)">
        <use class="rotate_vert" xlink:href="#slice10"/>
      </g>
      <g id="layer11" transform="translate (0 68.416)">
        <use class="rotate_vert" xlink:href="#slice11"/>
      </g>
      <g id="layer12" transform="translate (0 66.684)">
        <use class="rotate_vert" xlink:href="#slice12"/>
      </g>
      <g id="layer13" transform="translate (0 64.9519)">
        <use class="rotate_vert" xlink:href="#slice13"/>
      </g>
      <g id="layer14" transform="translate (0 63.2199)">
        <use class="rotate_vert" xlink:href="#slice14"/>
      </g>
      <g id="layer15" transform="translate (0 61.4878)">
        <use class="rotate_vert" xlink:href="#slice15"/>
      </g>
      <g id="layer16" transform="translate (0 59.7558)">
        <use class="rotate_vert" xlink:href="#slice16"/>
      </g>
      <g id="layer17" transform="translate (0 58.0237)">
        <use class="rotate_vert" xlink:href="#slice16"/>
      </g>
      <g id="layer18" transform="translate (0 56.2917)">
        <use class="rotate_vert" xlink:href="#slice16"/>
      </g>
      <g id="layer19" transform="translate (0 54.5596)">
        <use class="rotate_vert" xlink:href="#slice17"/>
      </g>
      <g id="layer20" transform="translate (0 52.8275)">
        <use class="rotate_vert" xlink:href="#slice18"/>
      </g>
      <g id="layer21" transform="translate (0 51.0955)">
        <use class="rotate_vert" xlink:href="#slice19"/>
      </g>
      <g id="layer22" transform="translate (0 49.3634)">
        <use class="rotate_vert" xlink:href="#slice20"/>
      </g>
      <g id="layer23" transform="translate (0 47.6314)">
        <use class="rotate_vert" xlink:href="#slice21"/>
      </g>
      <g id="layer24" transform="translate (0 45.8993)">
        <use class="rotate_vert" xlink:href="#slice22"/>
      </g>
      <g id="layer25" transform="translate (0 44.1673)">
        <use class="rotate_vert" xlink:href="#slice23"/>
      </g>
      <g id="layer26" transform="translate (0 42.4352)">
        <use class="rotate_vert" xlink:href="#slice24"/>
      </g>
      <g id="layer27" transform="translate (0 40.7032)">
        <use class="rotate_vert" xlink:href="#slice25"/>
      </g>
      <g id="layer28" transform="translate (0 38.9711)">
        <use class="rotate_vert" xlink:href="#slice26"/>
      </g>
      <g id="layer29" transform="translate (0 37.2391)">
        <use class="rotate_vert" xlink:href="#slice27"/>
      </g>
      <g id="layer30" transform="translate (0 35.507)">
        <use class="rotate_vert" xlink:href="#slice28"/>
      </g>
      <g id="layer31" transform="translate (0 33.775)">
        <use class="rotate_vert" xlink:href="#slice29"/>
      </g>
      <g id="layer32" transform="translate (0 32.0429)">
        <use class="rotate_vert" xlink:href="#slice30"/>
      </g>
      <g id="layer33" transform="translate (0 30.3109)">
        <use class="rotate_vert" xlink:href="#slice31"/>
      </g>
      <g id="layer34" transform="translate (0 28.5788)">
        <use class="rotate_vert" xlink:href="#slice32"/>
      </g>
      <g id="layer35" transform="translate (0 26.8468)">
        <use class="rotate_vert" xlink:href="#slice33"/>
      </g>
      <g id="layer36" transform="translate (0 25.1147)">
        <use class="rotate_vert" xlink:href="#slice34"/>
      </g>
      <g id="layer37" transform="translate (0 23.3827)">
        <use class="rotate_vert" xlink:href="#slice16"/>
      </g>
      <g id="layer38" transform="translate (0 21.6506)">
        <use class="rotate_vert" xlink:href="#slice16"/>
      </g>
      <g id="layer39" transform="translate (0 19.9186)">
        <use class="rotate_vert" xlink:href="#slice16"/>
      </g>
      <g id="layer40" transform="translate (0 18.1865)">
        <use class="rotate_vert" xlink:href="#slice16"/>
      </g>
      <g id="layer41" transform="translate (0 16.4545)">
        <use class="rotate_vert" xlink:href="#slice16"/>
      </g>
      <g id="layer42" transform="translate (0 14.7224)">
        <use class="rotate_vert" xlink:href="#slice35"/>
      </g>
      <g id="layer43" transform="translate (0 12.9904)">
        <use class="rotate_vert" xlink:href="#slice36"/>
      </g>
      <g id="layer44" transform="translate (0 11.2583)">
        <use class="rotate_vert" xlink:href="#slice37"/>
      </g>
      <g id="layer45" transform="translate (0 9.52628)">
        <use class="rotate_vert" xlink:href="#slice38"/>
      </g>
      <g id="layer46" transform="translate (0 7.79423)">
        <use class="rotate_vert" xlink:href="#slice39"/>
      </g>
      <g id="layer47" transform="translate (0 6.06218)">
        <use class="rotate_vert" xlink:href="#slice40"/>
      </g>
      <g id="layer48" transform="translate (0 4.33013)">
        <use class="rotate_vert" xlink:href="#slice41"/>
      </g>
      <g id="layer49" transform="translate (0 2.59808)">
        <use class="rotate_vert" xlink:href="#slice42"/>
      </g>
      <g id="layer50" transform="translate (0 0.866025)">
        <use class="rotate_vert" xlink:href="#slice43"/>
      </g>
      <g id="layer51" transform="translate (0 -0.866025)">
        <use class="rotate_vert" xlink:href="#slice43"/>
      </g>
      <g id="layer52" transform="translate (0 -2.59808)">
        <use class="rotate_vert" xlink:href="#slice42"/>
      </g>
      <g id="layer53" transform="translate (0 -4.33013)">
        <use class="rotate_vert" xlink:href="#slice41"/>
      </g>
      <g id="layer54" transform="translate (0 -6.06218)">
        <use class="rotate_vert" xlink:href="#slice40"/>
      </g>
      <g id="layer55" transform="translate (0 -7.79423)">
        <use class="rotate_vert" xlink:href="#slice39"/>
      </g>
      <g id="layer56" transform="translate (0 -9.52628)">
        <use class="rotate_vert" xlink:href="#slice38"/>
      </g>
      <g id="layer57" transform="translate (0 -11.2583)">
        <use class="rotate_vert" xlink:href="#slice37"/>
      </g>
      <g id="layer58" transform="translate (0 -12.9904)">
        <use class="rotate_vert" xlink:href="#slice36"/>
      </g>
      <g id="layer59" transform="translate (0 -14.7224)">
        <use class="rotate_vert" xlink:href="#slice35"/>
      </g>
      <g id="layer60" transform="translate (0 -16.4545)">
        <use class="rotate_vert" xlink:href="#slice16"/>
      </g>
      <g id="layer61" transform="translate (0 -18.1865)">
        <use class="rotate_vert" xlink:href="#slice16"/>
      </g>
      <g id="layer62" transform="translate (0 -19.9186)">
        <use class="rotate_vert" xlink:href="#slice16"/>
      </g>
      <g id="layer63" transform="translate (0 -21.6506)">
        <use class="rotate_vert" xlink:href="#slice16"/>
      </g>
      <g id="layer64" transform="translate (0 -23.3827)">
        <use class="rotate_vert" xlink:href="#slice16"/>
      </g>
      <g id="layer65" transform="translate (0 -25.1147)">
        <use class="rotate_vert" xlink:href="#slice44"/>
      </g>
      <g id="layer66" transform="translate (0 -26.8468)">
        <use class="rotate_vert" xlink:href="#slice45"/>
      </g>
      <g id="layer67" transform="translate (0 -28.5788)">
        <use class="rotate_vert" xlink:href="#slice46"/>
      </g>
      <g id="layer68" transform="translate (0 -30.3109)">
        <use class="rotate_vert" xlink:href="#slice47"/>
      </g>
      <g id="layer69" transform="translate (0 -32.0429)">
        <use class="rotate_vert" xlink:href="#slice48"/>
      </g>
      <g id="layer70" transform="translate (0 -33.775)">
        <use class="rotate_vert" xlink:href="#slice49"/>
      </g>
      <g id="layer71" transform="translate (0 -35.507)">
        <use class="rotate_vert" xlink:href="#slice50"/>
      </g>
      <g id="layer72" transform="translate (0 -37.2391)">
        <use class="rotate_vert" xlink:href="#slice51"/>
      </g>
      <g id="layer73" transform="translate (0 -38.9711)">
        <use class="rotate_vert" xlink:href="#slice52"/>
      </g>
      <g id="layer74" transform="translate (0 -40.7032)">
        <use class="rotate_vert" xlink:href="#slice53"/>
      </g>
      <g id="layer75" transform="translate (0 -42.4352)">
        <use class="rotate_vert" xlink:href="#slice54"/>
      </g>
      <g id="layer76" transform="translate (0 -44.1673)">
        <use class="rotate_vert" xlink:href="#slice55"/>
      </g>
      <g id="layer77" transform="translate (0 -45.8993)">
        <use class="rotate_vert" xlink:href="#slice56"/>
      </g>
      <g id="layer78" transform="translate (0 -47.6314)">
        <use class="rotate_vert" xlink:href="#slice57"/>
      </g>
      <g id="layer79" transform="translate (0 -49.3634)">
        <use class="rotate_vert" xlink:href="#slice58"/>
      </g>
      <g id="layer80" transform="translate (0 -51.0955)">
        <use class="rotate_vert" xlink:href="#slice59"/>
      </g>
      <g id="layer81" transform="translate (0 -52.8275)">
        <use class="rotate_vert" xlink:href="#slice60"/>
      </g>
      <g id="layer82" transform="translate (0 -54.5596)">
        <use class="rotate_vert" xlink:href="#slice61"/>
      </g>
      <g id="layer83" transform="translate (0 -56.2917)">
        <use class="rotate_vert" xlink:href="#slice16"/>
      </g>
      <g id="layer84" transform="translate (0 -58.0237)">
        <use class="rotate_vert" xlink:href="#slice16"/>
      </g>
      <g id="layer85" transform="translate (0 -59.7558)">
        <use class="rotate_vert" xlink:href="#slice16"/>
      </g>
      <g id="layer86" transform="translate (0 -61.4878)">
        <use class="rotate_vert" xlink:href="#slice15"/>
      </g>
      <g id="layer87" transform="translate (0 -63.2199)">
        <use class="rotate_vert" xlink:href="#slice14"/>
      </g>
      <g id="layer88" transform="translate (0 -64.9519)">
        <use class="rotate_vert" xlink:href="#slice13"/>
      </g>
      <g id="layer89" transform="translate (0 -66.684)">
        <use class="rotate_vert" xlink:href="#slice12"/>
      </g>
      <g id="layer90" transform="translate (0 -68.416)">
        <use class="rotate_vert" xlink:href="#slice11"/>
      </g>
      <g id="layer91" transform="translate (0 -70.1481)">
        <use class="rotate_vert" xlink:href="#slice10"/>
      </g>
      <g id="layer92" transform="translate (0 -71.8801)">
        <use class="rotate_vert" xlink:href="#slice9"/>
      </g>
      <g id="layer93" transform="translate (0 -73.6122)">
        <use class="rotate_vert" xlink:href="#slice8"/>
      </g>
      <g id="layer94" transform="translate (0 -75.3442)">
        <use class="rotate_vert" xlink:href="#slice7"/>
      </g>
      <g id="layer95" transform="translate (0 -77.0763)">
        <use class="rotate_vert" xlink:href="#slice6"/>
      </g>
      <g id="layer96" transform="translate (0 -78.8083)">
        <use class="rotate_vert" xlink:href="#slice5"/>
      </g>
      <g id="layer97" transform="translate (0 -80.5404)">
        <use class="rotate_vert" xlink:href="#slice4"/>
      </g>
      <g id="layer98" transform="translate (0 -82.2724)">
        <use class="rotate_vert" xlink:href="#slice62"/>
      </g>
      <g id="layer99" transform="translate (0 -84.0045)">
        <use class="rotate_vert" xlink:href="#slice63"/>
      </g>
      <g id="layer100" transform="translate (0 -85.7365)">
        <use class="rotate_vert" xlink:href="#slice64"/>
      </g>
    </g>
  </g>
</svg>
